<svg width="15" height="16" viewBox="0 0 15 16" fill="none" xmlns="http://www.w3.org/2000/svg">
<path d="M11.475 14.7188H3.49375C2.54375 14.7188 1.675 14.2375 1.175 13.425C0.675 12.6125 0.63125 11.625 1.05625 10.7688L2.13125 8.61251C2.48125 7.91251 3.04375 7.47502 3.675 7.40627C4.30625 7.33752 4.95 7.65002 5.4375 8.25627L5.575 8.43126C5.85 8.76876 6.16875 8.95002 6.48125 8.91877C6.79375 8.89377 7.08125 8.66877 7.29375 8.28752L8.475 6.15627C8.9625 5.27502 9.6125 4.81877 10.3188 4.85002C11.0188 4.88752 11.6188 5.41252 12.0188 6.33752L13.975 10.9063C14.3375 11.75 14.25 12.7125 13.7438 13.4813C13.2438 14.2625 12.3938 14.7188 11.475 14.7188ZM3.85 8.34377C3.825 8.34377 3.8 8.34377 3.775 8.35002C3.4625 8.38127 3.175 8.63127 2.96875 9.03752L1.89375 11.1938C1.6125 11.75 1.64375 12.4063 1.96875 12.9375C2.29375 13.4688 2.86875 13.7875 3.49375 13.7875H11.4688C12.0813 13.7875 12.625 13.4938 12.9625 12.9813C13.3 12.4688 13.3562 11.8563 13.1125 11.2938L11.1563 6.72502C10.9188 6.16252 10.5875 5.81877 10.2688 5.80627C9.975 5.78752 9.59375 6.10002 9.29375 6.63127L8.1125 8.76252C7.75 9.41252 7.18125 9.81877 6.5625 9.87502C5.94375 9.92501 5.3125 9.62502 4.84375 9.03752L4.70625 8.86252C4.44375 8.51877 4.14375 8.34377 3.85 8.34377Z" fill="#273266"/>
<path d="M4.35625 5.96875C3.06875 5.96875 2.0125 4.91875 2.0125 3.625C2.0125 2.33125 3.0625 1.28125 4.35625 1.28125C5.65 1.28125 6.7 2.33125 6.7 3.625C6.7 4.91875 5.65 5.96875 4.35625 5.96875ZM4.35625 2.21875C3.58125 2.21875 2.95 2.85 2.95 3.625C2.95 4.4 3.58125 5.03125 4.35625 5.03125C5.13125 5.03125 5.7625 4.4 5.7625 3.625C5.7625 2.85 5.13125 2.21875 4.35625 2.21875Z" fill="#273266"/>
</svg>
