<svg width="15" height="16" viewBox="0 0 15 16" fill="none" xmlns="http://www.w3.org/2000/svg">
<path d="M8.60233 15.5H3.46046C1.54884 15.5 0 13.9259 0 11.9988V6.83177C0 4.89765 1.55581 3.33059 3.46046 3.33059H8.60233C10.514 3.33059 12.0628 4.90471 12.0628 6.83177V11.9988C12.0628 13.9259 10.507 15.5 8.60233 15.5ZM3.46046 4.38941C2.12791 4.38941 1.04651 5.48353 1.04651 6.83177V11.9988C1.04651 13.3471 2.12791 14.4412 3.46046 14.4412H8.60233C9.93488 14.4412 11.0163 13.3471 11.0163 11.9988V6.83177C11.0163 5.48353 9.93488 4.38941 8.60233 4.38941H3.46046Z" fill="#273266"/>
<path d="M2.96512 2.79412C2.67907 2.79412 2.44186 2.55412 2.44186 2.26471V1.02941C2.44186 0.74 2.67907 0.5 2.96512 0.5C3.25116 0.5 3.48837 0.74 3.48837 1.02941V2.26471C3.48837 2.55412 3.25116 2.79412 2.96512 2.79412Z" fill="#273266"/>
<path d="M5.75581 2.79412C5.46977 2.79412 5.23256 2.55412 5.23256 2.26471V1.02941C5.23256 0.74 5.46977 0.5 5.75581 0.5C6.04186 0.5 6.27907 0.74 6.27907 1.02941V2.26471C6.27907 2.55412 6.04186 2.79412 5.75581 2.79412Z" fill="#273266"/>
<path d="M8.54651 2.79412C8.26046 2.79412 8.02326 2.55412 8.02326 2.26471V1.02941C8.02326 0.74 8.26046 0.5 8.54651 0.5C8.83256 0.5 9.06977 0.74 9.06977 1.02941V2.26471C9.06977 2.55412 8.83256 2.79412 8.54651 2.79412Z" fill="#273266"/>
<path d="M11.5395 12.2318C11.2535 12.2318 11.0163 11.9918 11.0163 11.7024V5.75882C11.0163 5.46941 11.2535 5.22941 11.5395 5.22941C13.4512 5.22941 15 6.80353 15 8.73059C15 10.6576 13.4442 12.2318 11.5395 12.2318ZM12.0628 6.34471V11.1165C13.1442 10.8765 13.9535 9.89529 13.9535 8.73059C13.9535 7.56588 13.1442 6.58471 12.0628 6.34471Z" fill="#273266"/>
<path d="M11.3442 8.44118H0.523256C0.237209 8.44118 0 8.20118 0 7.91177C0 7.62235 0.237209 7.38235 0.523256 7.38235H11.3442C11.6302 7.38235 11.8674 7.62235 11.8674 7.91177C11.8674 8.20118 11.6302 8.44118 11.3442 8.44118Z" fill="#273266"/>
</svg>
