<svg width="11" height="10" viewBox="0 0 11 10" fill="none" xmlns="http://www.w3.org/2000/svg">
<path d="M10.6163 2.5641H7.54651C7.33674 2.5641 7.16279 2.38974 7.16279 2.17949C7.16279 1.96923 7.33674 1.79487 7.54651 1.79487H10.6163C10.826 1.79487 11 1.96923 11 2.17949C11 2.38974 10.826 2.5641 10.6163 2.5641Z" fill="#273266"/>
<path d="M2.43023 2.5641H0.383721C0.173953 2.5641 0 2.38974 0 2.17949C0 1.96923 0.173953 1.79487 0.383721 1.79487H2.43023C2.64 1.79487 2.81395 1.96923 2.81395 2.17949C2.81395 2.38974 2.64 2.5641 2.43023 2.5641Z" fill="#273266"/>
<path d="M4.47674 4.35897C3.27954 4.35897 2.30233 3.37949 2.30233 2.17949C2.30233 0.979487 3.27954 0 4.47674 0C5.67395 0 6.65116 0.979487 6.65116 2.17949C6.65116 3.37949 5.67395 4.35897 4.47674 4.35897ZM4.47674 0.769231C3.69907 0.769231 3.06977 1.4 3.06977 2.17949C3.06977 2.95897 3.69907 3.58974 4.47674 3.58974C5.25442 3.58974 5.88372 2.95897 5.88372 2.17949C5.88372 1.4 5.25442 0.769231 4.47674 0.769231Z" fill="#273266"/>
<path d="M10.6163 8.20513H8.56977C8.36 8.20513 8.18605 8.03077 8.18605 7.82051C8.18605 7.61026 8.36 7.4359 8.56977 7.4359H10.6163C10.826 7.4359 11 7.61026 11 7.82051C11 8.03077 10.826 8.20513 10.6163 8.20513Z" fill="#273266"/>
<path d="M3.45349 8.20513H0.383721C0.173953 8.20513 0 8.03077 0 7.82051C0 7.61026 0.173953 7.4359 0.383721 7.4359H3.45349C3.66326 7.4359 3.83721 7.61026 3.83721 7.82051C3.83721 8.03077 3.66326 8.20513 3.45349 8.20513Z" fill="#273266"/>
<path d="M6.52326 10C5.32605 10 4.34884 9.02051 4.34884 7.82051C4.34884 6.62051 5.32605 5.64103 6.52326 5.64103C7.72047 5.64103 8.69767 6.62051 8.69767 7.82051C8.69767 9.02051 7.72047 10 6.52326 10ZM6.52326 6.41026C5.74558 6.41026 5.11628 7.04103 5.11628 7.82051C5.11628 8.6 5.74558 9.23077 6.52326 9.23077C7.30093 9.23077 7.93023 8.6 7.93023 7.82051C7.93023 7.04103 7.30093 6.41026 6.52326 6.41026Z" fill="#273266"/>
</svg>
