<svg width="9" height="13" viewBox="0 0 9 13" fill="none" xmlns="http://www.w3.org/2000/svg">
<path d="M8.14496 5.96682C7.99713 5.76682 7.81716 5.59348 7.65005 5.42014C7.21941 5.02013 6.73093 4.73345 6.31958 4.31344C5.3619 3.34008 5.14979 1.73337 5.7604 0.5C5.14979 0.653338 4.61632 1.00001 4.15998 1.38003C2.49528 2.76673 1.83969 5.21347 2.62383 7.31353C2.64954 7.3802 2.67525 7.44686 2.67525 7.53353C2.67525 7.6802 2.57884 7.81354 2.45029 7.86688C2.30246 7.93355 2.1482 7.89354 2.02608 7.78687C1.98938 7.7554 1.95884 7.71693 1.9361 7.67354C1.2098 6.72018 1.09411 5.35347 1.58259 4.26011C0.509215 5.1668 -0.0756782 6.70018 0.00787789 8.14688C0.0464423 8.48023 0.0850066 8.81357 0.194272 9.14691C0.284256 9.54692 0.457796 9.94694 0.650617 10.3003C1.34478 11.4536 2.5467 12.2803 3.83861 12.447C5.21407 12.627 6.68594 12.367 7.74003 11.3803C8.91625 10.2736 9.3276 8.50023 8.72342 6.98018L8.63987 6.80685C8.50489 6.50017 8.14496 5.96682 8.14496 5.96682ZM6.1139 10.1669C5.93394 10.3269 5.63828 10.5003 5.40689 10.567C4.68702 10.8336 3.96715 10.4603 3.54294 10.0203C4.30781 9.8336 4.76415 9.24691 4.89913 8.65357C5.00839 8.12022 4.80271 7.6802 4.71916 7.16686C4.64203 6.67351 4.65488 6.2535 4.82842 5.79348C4.95054 6.04682 5.07909 6.30017 5.23335 6.50017C5.72826 7.16686 6.50597 7.4602 6.67309 8.36689C6.6988 8.46023 6.71165 8.55356 6.71165 8.65357C6.73093 9.20025 6.49955 9.80026 6.1139 10.1669Z" fill="url(#paint0_linear_6016_46)"/>
<defs>
<linearGradient id="paint0_linear_6016_46" x1="2.31661e-09" y1="6.5" x2="12.1684" y2="6.48693" gradientUnits="userSpaceOnUse">
<stop stop-color="#97007F"/>
<stop offset="0.664583" stop-color="#DE2222"/>
<stop offset="1" stop-color="#5FFFCF"/>
<stop offset="1" stop-color="#FF5FDC"/>
</linearGradient>
</defs>
</svg>
