<svg width="9" height="13" viewBox="0 0 9 13" fill="none" xmlns="http://www.w3.org/2000/svg">
<path d="M8.89145 6.36379L3.16352 12.863C3.10282 12.9316 3.0227 12.9774 2.93524 12.9936C2.84779 13.0097 2.75774 12.9953 2.6787 12.9525C2.59966 12.9097 2.53591 12.8408 2.49707 12.7563C2.45823 12.6718 2.4464 12.5761 2.46338 12.4839L3.21313 8.51231L0.265797 7.34029C0.202499 7.31522 0.146052 7.27393 0.101499 7.22011C0.0569454 7.1663 0.0256738 7.10164 0.0104775 7.0319C-0.00471877 6.96216 -0.00336633 6.88953 0.0144139 6.82048C0.0321941 6.75143 0.0658483 6.68812 0.11237 6.63621L5.84031 0.137021C5.90101 0.0684193 5.98113 0.0225868 6.06858 0.00643943C6.15604 -0.00970796 6.24608 0.00470588 6.32512 0.0475059C6.40416 0.0903059 6.46791 0.15917 6.50675 0.243706C6.5456 0.328242 6.55742 0.423863 6.54044 0.51614L5.78865 4.49202L8.73598 5.66242C8.79881 5.68766 8.85481 5.7289 8.89901 5.7825C8.94322 5.8361 8.97428 5.90041 8.98944 5.96974C9.00461 6.03907 9.00342 6.11129 8.98597 6.18002C8.96852 6.24874 8.93536 6.31186 8.88941 6.36379H8.89145Z" fill="url(#paint0_linear_6016_811)" fill-opacity="0.8"/>
<defs>
<linearGradient id="paint0_linear_6016_811" x1="-1.56522e-08" y1="6.5" x2="15.2588" y2="6.60472" gradientUnits="userSpaceOnUse">
<stop stop-color="#1624EC"/>
<stop offset="0.664583" stop-color="#777FED"/>
<stop offset="1" stop-color="#E9E9EF"/>
</linearGradient>
</defs>
</svg>
