<svg width="15" height="16" viewBox="0 0 15 16" fill="none" xmlns="http://www.w3.org/2000/svg">
<path d="M11.7558 12.0116H3.24418C1.62558 12.0116 0.697674 11.0837 0.697674 9.46512V1.02326C0.697674 0.737209 0.934884 0.5 1.22093 0.5H13.7791C14.0651 0.5 14.3023 0.737209 14.3023 1.02326V9.46512C14.3023 11.0837 13.3744 12.0116 11.7558 12.0116ZM1.74419 1.54651V9.46512C1.74419 10.5047 2.20465 10.9651 3.24418 10.9651H11.7488C12.7884 10.9651 13.2488 10.5047 13.2488 9.46512V1.54651H1.74419Z" fill="#273266"/>
<path d="M14.4767 1.54651H0.523256C0.237209 1.54651 0 1.3093 0 1.02326C0 0.737209 0.237209 0.5 0.523256 0.5H14.4767C14.7628 0.5 15 0.737209 15 1.02326C15 1.3093 14.7628 1.54651 14.4767 1.54651Z" fill="#273266"/>
<path d="M4.70949 15.5C4.51414 15.5 4.33273 15.3953 4.24204 15.214C4.10948 14.9558 4.21415 14.6419 4.47926 14.5093L6.97693 13.2605V11.4884C6.97693 11.2023 7.21414 10.9651 7.50018 10.9651C7.78623 10.9651 8.02344 11.2023 8.02344 11.4884V13.5814C8.02344 13.7767 7.9118 13.9581 7.73041 14.0488L4.93971 15.4442C4.86994 15.4791 4.78623 15.5 4.70949 15.5Z" fill="#273266"/>
<path d="M10.2907 15.5C10.2139 15.5 10.1302 15.4791 10.0604 15.4442L7.26974 14.0488C7.0116 13.9163 6.90693 13.6023 7.03251 13.3442C7.16507 13.086 7.47903 12.9814 7.73717 13.107L10.5279 14.5023C10.786 14.6349 10.8907 14.9488 10.7651 15.207C10.6674 15.3953 10.479 15.5 10.2907 15.5Z" fill="#273266"/>
<path d="M4.36041 7.82557C4.2139 7.82557 4.06042 7.76279 3.95577 7.63721C3.7674 7.41395 3.80227 7.08605 4.02552 6.89768L6.22321 5.06279C6.42554 4.89535 6.68366 4.82558 6.92785 4.86744C7.17901 4.9093 7.3953 5.06277 7.52786 5.28603L8.26041 6.50696L10.3046 4.80465C10.5278 4.62326 10.8558 4.65115 11.0441 4.8744C11.2325 5.09766 11.1976 5.42556 10.9744 5.61394L8.77668 7.44882C8.57436 7.61626 8.31623 7.68603 8.07205 7.64417C7.82088 7.60231 7.60459 7.44884 7.47203 7.22558L6.73949 6.00465L4.6953 7.70696C4.59763 7.7837 4.47902 7.82557 4.36041 7.82557Z" fill="#273266"/>
</svg>
