<svg width="15" height="12" viewBox="0 0 15 12" fill="none" xmlns="http://www.w3.org/2000/svg">
<path d="M12.4447 6.41478C12.333 6.41478 12.2214 6.37999 12.1237 6.30347C9.31163 4.13999 5.67617 4.13999 2.8641 6.30347C2.63383 6.47738 2.30587 6.43564 2.13142 6.21303C1.95698 5.98347 1.99885 5.65652 2.22214 5.4826C5.42497 3.01304 9.56282 3.01304 12.7587 5.4826C12.9889 5.65652 13.0308 5.98347 12.8494 6.21303C12.7587 6.3452 12.6052 6.41478 12.4447 6.41478Z" fill="#273266"/>
<path d="M14.4753 3.99391C14.3636 3.99391 14.252 3.95914 14.1543 3.88262C10.1072 0.766103 4.88077 0.766103 0.840597 3.88262C0.610328 4.05653 0.282367 4.01479 0.107921 3.79218C-0.0665248 3.56262 -0.024665 3.23565 0.198626 3.06174C4.62956 -0.353912 10.3584 -0.353912 14.7963 3.06174C15.0265 3.23565 15.0684 3.56262 14.887 3.79218C14.7893 3.92436 14.6288 3.99391 14.4753 3.99391Z" fill="#273266"/>
<path d="M11.1329 8.95391C11.0213 8.95391 10.9096 8.91912 10.812 8.8426C8.80234 7.2913 6.1996 7.2913 4.18301 8.8426C3.95274 9.01651 3.62478 8.97479 3.45033 8.75218C3.27588 8.52262 3.31775 8.19565 3.54105 8.02174C5.94142 6.1713 9.04656 6.1713 11.4469 8.02174C11.6772 8.19565 11.7191 8.52262 11.5376 8.75218C11.44 8.88436 11.2865 8.95391 11.1329 8.95391Z" fill="#273266"/>
<path d="M9.31179 11.5C9.20015 11.5 9.0885 11.4652 8.99081 11.3887C8.08369 10.6861 6.90444 10.6861 5.99732 11.3887C5.76705 11.5626 5.43909 11.5209 5.26464 11.2983C5.0902 11.0687 5.13205 10.7417 5.35535 10.5678C6.65322 9.56609 8.32791 9.56609 9.62579 10.5678C9.85606 10.7417 9.89792 11.0687 9.7165 11.2983C9.62578 11.4235 9.47228 11.5 9.31179 11.5Z" fill="#273266"/>
</svg>
