<svg width="15" height="14" viewBox="0 0 15 14" fill="none" xmlns="http://www.w3.org/2000/svg">
<path d="M7.49984 12.5615C6.42518 12.5615 5.35052 12.1195 4.53406 11.243C2.89416 9.48249 2.89416 6.62823 4.53406 4.8677C5.32959 4.01366 6.38331 3.54918 7.49984 3.54918C8.61637 3.54918 9.67707 4.02115 10.4656 4.8677C12.1055 6.62823 12.1055 9.48249 10.4656 11.243C9.64916 12.1195 8.5745 12.5615 7.49984 12.5615ZM7.49984 4.68041C6.66244 4.68041 5.86691 5.03248 5.27376 5.66926C4.04558 6.98778 4.04558 9.13038 5.27376 10.4489C6.50194 11.7674 8.49774 11.7599 9.72592 10.4489C10.9541 9.13038 10.9541 6.98778 9.72592 5.66926C9.13276 5.03248 8.33724 4.68041 7.49984 4.68041Z" fill="#273266"/>
<path d="M12.2382 3.63907C12.0707 3.63907 11.9172 3.57164 11.7986 3.44428C11.5543 3.18208 11.5543 2.75505 11.7986 2.50034C11.9172 2.37298 12.0707 2.30555 12.2382 2.30555C12.4057 2.30555 12.5592 2.37298 12.6779 2.50034C12.7965 2.62769 12.8593 2.79251 12.8593 2.97231C12.8593 3.15211 12.7965 3.31693 12.6779 3.44428C12.5662 3.57164 12.4057 3.63907 12.2382 3.63907ZM12.1894 2.91236V3.02476C12.2033 3.03974 12.2242 3.04721 12.2452 3.04721C12.3289 2.99477 12.3289 2.94233 12.294 2.91236H12.1894Z" fill="#273266"/>
<path d="M12.2382 3.82636C12.0218 3.82636 11.8265 3.73644 11.6729 3.57163C11.3659 3.242 11.3659 2.69512 11.6729 2.35799C11.8265 2.19318 12.0218 2.11076 12.2382 2.11076C12.4545 2.11076 12.6499 2.20068 12.8034 2.36549C12.9569 2.53031 13.0337 2.74007 13.0337 2.97231C13.0337 3.20455 12.95 3.41431 12.7964 3.57913C12.6569 3.73645 12.4545 3.82636 12.2382 3.82636ZM12.0637 3.1596C12.1126 3.21204 12.1754 3.2345 12.2382 3.2345C12.301 3.2345 12.3638 3.20455 12.4126 3.1596C12.5103 3.05472 12.5103 2.8899 12.4126 2.78502C12.3219 2.68763 12.1544 2.68763 12.0637 2.78502C12.0218 2.82997 11.9939 2.89739 11.9939 2.97231C11.9939 3.03973 12.0149 3.10716 12.0637 3.1596Z" fill="#273266"/>
<path d="M2.76157 13.8127C2.60107 13.8127 2.44057 13.7453 2.32193 13.6179C2.2033 13.4906 2.14051 13.3183 2.14051 13.1459C2.14051 12.9661 2.2033 12.8013 2.32193 12.674C2.44057 12.5466 2.59409 12.4792 2.76157 12.4792C2.92905 12.4792 3.08258 12.5466 3.20121 12.674C3.44545 12.9362 3.44545 13.3632 3.20121 13.6179C3.08258 13.7453 2.92207 13.8127 2.76157 13.8127ZM2.74762 13.071C2.73367 13.071 2.71971 13.0785 2.70575 13.0935C2.67784 13.1235 2.67784 13.1759 2.70575 13.2059C2.71971 13.2209 2.74065 13.2283 2.75461 13.2283L2.82437 13.1534C2.80344 13.086 2.77554 13.071 2.74762 13.071Z" fill="#273266"/>
<path d="M2.76174 14C2.55937 14 2.35002 13.9176 2.1965 13.7528C2.04298 13.5879 1.95924 13.3707 1.95924 13.1459C1.95924 12.9137 2.04298 12.7039 2.1965 12.5391C2.34305 12.3818 2.54541 12.2919 2.76174 12.2919C2.97807 12.2919 3.17346 12.3818 3.32698 12.5466C3.64101 12.8838 3.64101 13.4231 3.32698 13.7603C3.17346 13.9176 2.96411 14 2.76174 14ZM2.76174 12.8763C2.69894 12.8763 2.63613 12.8987 2.58728 12.9512C2.48959 13.056 2.48959 13.2209 2.58728 13.3257C2.63613 13.3782 2.69894 13.4006 2.76174 13.4006C2.82455 13.4006 2.89433 13.3707 2.9362 13.3182C2.97807 13.2733 3.00599 13.2059 3.00599 13.1309C3.00599 13.0635 2.97807 12.9886 2.9362 12.9437C2.88735 12.9062 2.82455 12.8763 2.76174 12.8763Z" fill="#273266"/>
<path d="M14.1992 8.72585C14.0387 8.72585 13.8782 8.65841 13.7595 8.53106C13.5153 8.26885 13.5153 7.84186 13.7595 7.57966C13.8782 7.4523 14.0387 7.42233 14.1992 7.38487C14.3666 7.38487 14.5202 7.4523 14.6388 7.57966C14.883 7.84186 14.883 8.26885 14.6388 8.53106C14.5202 8.65841 14.3597 8.72585 14.1992 8.72585ZM14.1503 8.11153C14.1643 8.12651 14.1852 8.13403 14.2061 8.13403C14.2829 8.08158 14.2829 8.02915 14.255 7.99918C14.2271 7.96922 14.1782 7.96922 14.1503 7.99918C14.1224 8.02915 14.1224 8.08156 14.1503 8.11153Z" fill="#273266"/>
<path d="M14.1992 8.91314C13.9969 8.91314 13.7875 8.83072 13.634 8.6659C13.32 8.32878 13.32 7.78939 13.634 7.45227C13.7875 7.28745 13.9829 7.19758 14.1992 7.19758C14.4156 7.19758 14.611 7.28745 14.7645 7.45227C15.0785 7.78939 15.0785 8.32878 14.7645 8.6659C14.611 8.83072 14.4086 8.91314 14.1992 8.91314ZM14.0248 8.24637C14.0736 8.29881 14.1364 8.32132 14.1992 8.32132C14.262 8.32132 14.3249 8.29132 14.3737 8.24637C14.4714 8.14149 14.4714 7.97668 14.3737 7.87179C14.276 7.76691 14.1225 7.76691 14.0248 7.87179C13.9341 7.96918 13.9271 8.14149 14.0248 8.24637Z" fill="#273266"/>
<path d="M0.800682 8.72588C0.640181 8.72588 0.479677 8.65845 0.361046 8.53109C0.116805 8.26889 0.116805 7.8419 0.361046 7.57969C0.605286 7.31749 1.00306 7.31749 1.2473 7.57969C1.49154 7.8419 1.49154 8.26889 1.2473 8.53109C1.11472 8.65845 0.954205 8.72588 0.800682 8.72588ZM0.744865 8.11157C0.772778 8.14153 0.821622 8.14153 0.849535 8.11157C0.877449 8.0816 0.877449 8.02919 0.849535 7.99922C0.821622 7.96925 0.772778 7.96925 0.744865 7.99922C0.716952 8.02919 0.716952 8.0816 0.744865 8.11157Z" fill="#273266"/>
<path d="M0.800759 8.91315C0.598388 8.91315 0.389041 8.83073 0.235518 8.66592C-0.0785059 8.32879 -0.0785059 7.7894 0.235518 7.45228C0.549542 7.11516 1.05895 7.12265 1.366 7.45228C1.68002 7.7894 1.68002 8.32879 1.366 8.66592C1.2055 8.83073 1.00313 8.91315 0.800759 8.91315ZM0.619337 8.24639C0.717034 8.35127 0.870556 8.35127 0.968253 8.24639C1.06595 8.14151 1.06595 7.9692 0.968253 7.87181C0.870556 7.76693 0.717034 7.76693 0.619337 7.87181C0.528619 7.9692 0.528619 8.14151 0.619337 8.24639Z" fill="#273266"/>
<path d="M12.2382 13.8127C12.0777 13.8127 11.9172 13.7452 11.7986 13.6179C11.5543 13.3557 11.5543 12.9286 11.7986 12.6664C12.0428 12.4042 12.4406 12.4042 12.6848 12.6664C12.8035 12.7938 12.8663 12.9586 12.8663 13.1384C12.8663 13.3182 12.8035 13.483 12.6848 13.6104C12.5592 13.7452 12.3987 13.8127 12.2382 13.8127ZM12.2382 13.0635C12.2173 13.0635 12.2033 13.071 12.1894 13.0859V13.1983C12.2173 13.2283 12.2661 13.2283 12.294 13.1983C12.322 13.1684 12.322 13.1159 12.294 13.0859C12.2731 13.071 12.2592 13.0635 12.2382 13.0635Z" fill="#273266"/>
<path d="M12.2383 13.9999C12.0359 13.9999 11.8266 13.9175 11.6731 13.7527C11.359 13.4156 11.359 12.8762 11.6731 12.5391C11.9871 12.2019 12.4895 12.2019 12.8035 12.5391C12.9571 12.7039 13.0408 12.9136 13.0408 13.1459C13.0408 13.3781 12.9571 13.5879 12.8035 13.7527C12.65 13.9175 12.4407 13.9999 12.2383 13.9999ZM12.0638 13.3332C12.1615 13.4381 12.3151 13.4381 12.4128 13.3332C12.5105 13.2283 12.5105 13.0635 12.4128 12.9586C12.3151 12.8537 12.1615 12.8537 12.0638 12.9586C12.015 13.011 11.9941 13.0785 11.9941 13.1459C11.9941 13.2133 12.015 13.2807 12.0638 13.3332Z" fill="#273266"/>
<path d="M2.76157 3.63907C2.59409 3.63907 2.44057 3.57164 2.32193 3.44428C2.2033 3.31693 2.14051 3.15211 2.14051 2.97231C2.14051 2.79251 2.2033 2.62769 2.32193 2.50034C2.44057 2.37298 2.59409 2.30555 2.76157 2.30555C2.92905 2.30555 3.08258 2.37298 3.20121 2.50034C3.44545 2.76254 3.44545 3.18958 3.20121 3.45178C3.08258 3.57165 2.92905 3.63907 2.76157 3.63907ZM2.70575 3.02476C2.71971 3.03974 2.74065 3.04721 2.75461 3.04721L2.82437 2.97231L2.75461 2.89741C2.67785 2.94236 2.67784 2.99479 2.70575 3.02476Z" fill="#273266"/>
<path d="M2.76157 3.82636C2.54524 3.82636 2.34985 3.73644 2.19633 3.57163C2.04979 3.4143 1.96606 3.19705 1.96606 2.96481C1.96606 2.73257 2.04979 2.52281 2.20332 2.35799C2.34986 2.20067 2.55223 2.11076 2.76856 2.11076C2.98488 2.11076 3.18027 2.20068 3.3338 2.36549C3.64084 2.70261 3.64084 3.24201 3.3338 3.57913C3.1733 3.73645 2.9779 3.82636 2.76157 3.82636ZM2.58711 3.1596C2.63596 3.21204 2.69877 3.242 2.76157 3.242C2.82438 3.242 2.88718 3.21205 2.93603 3.1671C2.98488 3.12215 3.00582 3.04723 3.00582 2.97981C3.00582 2.91238 2.97791 2.83747 2.92907 2.79252C2.84533 2.69513 2.67087 2.69513 2.58015 2.79252C2.48943 2.88242 2.48942 3.05472 2.58711 3.1596Z" fill="#273266"/>
<path d="M7.49989 1.53393C7.33241 1.53393 7.17888 1.4665 7.06025 1.33914C6.94162 1.21178 6.87881 1.04696 6.87881 0.867166C6.87881 0.687368 6.94162 0.522549 7.06025 0.395192C7.30449 0.132987 7.70227 0.132987 7.94651 0.395192C8.19075 0.657398 8.19075 1.08443 7.94651 1.33914C7.82788 1.45901 7.66737 1.53393 7.49989 1.53393ZM7.54874 0.807221L7.44407 0.919613C7.47199 0.949579 7.52083 0.949579 7.54874 0.919613V0.807221ZM7.45104 0.807221C7.42312 0.837187 7.42312 0.889646 7.45104 0.919613L7.55571 0.807221H7.45104Z" fill="#273266"/>
<path d="M7.49989 1.72121C7.28356 1.72121 7.08817 1.63129 6.93465 1.46648C6.7881 1.30915 6.70435 1.0919 6.70435 0.859658C6.70435 0.627419 6.78811 0.417656 6.94163 0.252841C7.25566 -0.0842804 7.75809 -0.0842804 8.07212 0.252841C8.37916 0.589963 8.37916 1.12935 8.07212 1.46648C7.91859 1.63129 7.71622 1.72121 7.49989 1.72121ZM7.67435 0.672368L7.32543 1.04695C7.42313 1.15183 7.57665 1.15183 7.67435 1.04695C7.7232 0.994507 7.74413 0.927082 7.74413 0.859658C7.74413 0.792234 7.7232 0.724809 7.67435 0.672368ZM7.49989 0.597471C7.43708 0.597471 7.3673 0.627426 7.32543 0.679867C7.22774 0.78475 7.22774 0.949564 7.32543 1.05445L7.67435 0.679867C7.63248 0.627426 7.56967 0.597471 7.49989 0.597471Z" fill="#273266"/>
</svg>
