<svg width="19" height="18" viewBox="0 0 19 18" fill="none" xmlns="http://www.w3.org/2000/svg">
    <path d="M9.5 18C9.22605 18 8.96093 17.9627 8.74 17.8788C5.36419 16.657 0 12.3202 0 5.91295C0 2.6487 2.50093 0 5.57628 0C7.06977 0 8.46605 0.615544 9.5 1.71606C10.534 0.615544 11.9302 0 13.4237 0C16.4991 0 19 2.65803 19 5.91295C19 12.3295 13.6358 16.657 10.26 17.8788C10.0391 17.9627 9.77395 18 9.5 18ZM5.57628 1.39896C3.23442 1.39896 1.32558 3.4228 1.32558 5.91295C1.32558 12.2829 7.13163 15.8269 9.17302 16.5637C9.33209 16.6197 9.67674 16.6197 9.83581 16.5637C11.8684 15.8269 17.6833 12.2922 17.6833 5.91295C17.6833 3.4228 15.7744 1.39896 13.4326 1.39896C12.0893 1.39896 10.8433 2.06114 10.0391 3.20829C9.79163 3.56269 9.22605 3.56269 8.9786 3.20829C8.15674 2.05181 6.91953 1.39896 5.57628 1.39896Z" fill="#273266"/>
</svg>
