<svg width="15" height="19" viewBox="0 0 15 19" fill="none" xmlns="http://www.w3.org/2000/svg">
<path d="M7.49755 11.3117C5.79441 11.3117 4.40311 9.86401 4.40311 8.07322C4.40311 6.28243 5.79441 4.84309 7.49755 4.84309C9.20069 4.84309 10.592 6.29079 10.592 8.08159C10.592 9.87238 9.20069 11.3117 7.49755 11.3117ZM7.49755 6.09832C6.45808 6.09832 5.60251 6.98535 5.60251 8.08159C5.60251 9.17782 6.45008 10.0649 7.49755 10.0649C8.54502 10.0649 9.3926 9.17782 9.3926 8.08159C9.3926 6.98535 8.53703 6.09832 7.49755 6.09832Z" fill="#717171"/>
<path d="M7.49753 18.5C6.31413 18.5 5.12273 18.0314 4.1952 17.1025C1.83639 14.7259 -0.770298 10.9351 0.213205 6.42469C1.10076 2.33264 4.51504 0.5 7.49753 0.5C7.49753 0.5 7.49753 0.5 7.50553 0.5C10.488 0.5 13.9023 2.33264 14.7899 6.43305C15.7654 10.9435 13.1587 14.7259 10.7999 17.1025C9.87233 18.0314 8.68093 18.5 7.49753 18.5ZM7.49753 1.75523C5.1707 1.75523 2.18021 3.0523 1.38861 6.70084C0.525048 10.6423 2.89185 14.0397 5.03477 16.1904C6.41807 17.5879 8.58498 17.5879 9.96828 16.1904C12.1032 14.0397 14.47 10.6423 13.6224 6.70084C12.8228 3.0523 9.82436 1.75523 7.49753 1.75523Z" fill="#717171"/>
</svg>
