<svg width="15" height="13" viewBox="0 0 15 13" fill="none" xmlns="http://www.w3.org/2000/svg">
<path d="M10.9884 13H4.01163C1.46512 13 0 11.5243 0 8.95946V4.04054C0 1.47568 1.46512 0 4.01163 0H10.9884C13.5349 0 15 1.47568 15 4.04054V8.95946C15 11.5243 13.5349 13 10.9884 13ZM4.01163 1.05405C2.01628 1.05405 1.04651 2.03081 1.04651 4.04054V8.95946C1.04651 10.9692 2.01628 11.9459 4.01163 11.9459H10.9884C12.9837 11.9459 13.9535 10.9692 13.9535 8.95946V4.04054C13.9535 2.03081 12.9837 1.05405 10.9884 1.05405H4.01163Z" fill="#717171"/>
<path d="M7.49984 7.11133C6.9138 7.11133 6.32078 6.92863 5.86729 6.5562L3.68356 4.79944C3.46031 4.61674 3.41845 4.28646 3.59985 4.0616C3.78124 3.83673 4.10915 3.79458 4.33241 3.97728L6.51612 5.73404C7.04635 6.16268 7.94635 6.16268 8.47658 5.73404L10.6603 3.97728C10.8836 3.79458 11.2185 3.82971 11.3929 4.0616C11.5743 4.28646 11.5394 4.62376 11.3092 4.79944L9.12543 6.5562C8.67892 6.92863 8.08589 7.11133 7.49984 7.11133Z" fill="#717171"/>
</svg>
