<svg width="15" height="16" viewBox="0 0 15 16" fill="none" xmlns="http://www.w3.org/2000/svg">
<path fill-rule="evenodd" clip-rule="evenodd" d="M7.47209 0.5H7.52791C8.21093 0.5 8.76349 0.5 9.2093 0.546046C9.67116 0.593488 10.0723 0.694651 10.4323 0.932558C10.6402 1.0693 10.8279 1.23535 10.9891 1.42581C11.2674 1.75512 11.4153 2.14093 11.5179 2.59442C11.617 3.03116 11.6826 3.58023 11.7642 4.25767L11.8353 4.85279C11.9191 5.54837 11.9881 6.12465 11.9791 6.58442C11.9693 7.06721 11.8737 7.51163 11.5486 7.87791C11.2235 8.24488 10.7937 8.39279 10.3151 8.45977C9.86023 8.52326 9.27977 8.52326 8.5793 8.52326H8.02326V9.22093H10.9884C11.2123 9.22093 11.4223 9.28093 11.6023 9.38628L11.7977 8.80233C11.8375 8.67321 11.8852 8.54669 11.9407 8.42349C12.0007 8.29442 12.0314 8.24349 12.0788 8.16465C12.2777 7.83744 12.5372 7.55349 12.9565 7.3693C13.3514 7.19488 13.8453 7.12791 14.4767 7.12791C14.6155 7.12791 14.7486 7.18304 14.8467 7.28117C14.9449 7.37929 15 7.51239 15 7.65116C15 7.78994 14.9449 7.92303 14.8467 8.02116C14.7486 8.11929 14.6155 8.17442 14.4767 8.17442C13.8998 8.17442 13.5767 8.2386 13.3786 8.32651C13.2049 8.40326 13.0926 8.5114 12.9733 8.70814C12.9523 8.74302 12.9433 8.75767 12.9342 8.77512C12.9186 8.80418 12.9039 8.83373 12.8902 8.86372C12.8553 8.94046 12.8379 8.9893 12.7856 9.14558L12.1828 10.956C12.1608 11.0218 12.126 11.0825 12.0802 11.1347C11.9404 11.4956 11.6946 11.8058 11.3752 12.0246C11.0559 12.2434 10.6778 12.3604 10.2907 12.3605H8.02326V13.174C8.4214 13.2859 8.78605 13.4937 9.08536 13.7792C9.38466 14.0646 9.6095 14.419 9.74023 14.8114C9.77813 14.9413 9.76421 15.0809 9.7014 15.2008C9.63858 15.3206 9.53177 15.4115 9.40337 15.4543C9.27498 15.4971 9.135 15.4885 9.01282 15.4303C8.89065 15.3721 8.79578 15.2688 8.74814 15.1421C8.62589 14.7759 8.36592 14.4716 8.02326 14.2937V14.9767C8.02326 15.1155 7.96813 15.2486 7.87 15.3467C7.77187 15.4449 7.63878 15.5 7.5 15.5C7.36122 15.5 7.22813 15.4449 7.13 15.3467C7.03187 15.2486 6.97674 15.1155 6.97674 14.9767V14.293C6.63395 14.4711 6.37395 14.7756 6.25186 15.1421C6.20666 15.272 6.1121 15.3789 5.98866 15.4397C5.86521 15.5004 5.72282 15.5101 5.59229 15.4666C5.46177 15.4231 5.35362 15.33 5.29125 15.2074C5.22889 15.0847 5.21733 14.9425 5.25907 14.8114C5.38987 14.4189 5.61481 14.0645 5.91425 13.779C6.21368 13.4936 6.57847 13.2858 6.97674 13.174V12.3605H4.7093C4.32219 12.3604 3.94413 12.2434 3.62476 12.0246C3.30539 11.8058 3.05964 11.4956 2.91977 11.1347C2.87406 11.0825 2.83919 11.0218 2.81721 10.956L2.21372 9.14558C2.18477 9.04953 2.14982 8.95539 2.10907 8.86372C2.08457 8.81035 2.05709 8.75841 2.02674 8.70814C1.90744 8.5114 1.79512 8.40326 1.6214 8.32651C1.42256 8.2386 1.10023 8.17442 0.523256 8.17442C0.38448 8.17442 0.251388 8.11929 0.153258 8.02116C0.0551286 7.92303 0 7.78994 0 7.65116C0 7.51239 0.0551286 7.37929 0.153258 7.28117C0.251388 7.18304 0.38448 7.12791 0.523256 7.12791C1.15465 7.12791 1.6486 7.19419 2.04419 7.3686C2.46279 7.55349 2.72233 7.83744 2.92116 8.16395C2.9686 8.24349 2.9993 8.29442 3.0593 8.42349C3.1207 8.55744 3.15488 8.6586 3.20302 8.80233L3.39767 9.38628C3.57767 9.28163 3.78767 9.22093 4.01163 9.22093H6.97674V8.52326H6.4207C5.72023 8.52326 5.13977 8.52326 4.68488 8.45977C4.20628 8.39279 3.77651 8.24419 3.4514 7.87791C3.12628 7.51163 3.0307 7.06721 3.02093 6.58442C3.01186 6.12465 3.08093 5.54837 3.16465 4.85279L3.23581 4.25767C3.31744 3.58023 3.38302 3.03116 3.48209 2.59442C3.58465 2.14093 3.73256 1.75512 4.01093 1.42581C4.17209 1.23535 4.35977 1.07 4.56767 0.932558C4.92767 0.695349 5.32814 0.593488 5.7907 0.546046C6.23651 0.5 6.78907 0.5 7.47209 0.5ZM10.2907 11.314C10.7721 11.314 11.1628 10.9233 11.1628 10.4419C11.1628 10.3956 11.1444 10.3512 11.1117 10.3185C11.079 10.2858 11.0346 10.2674 10.9884 10.2674H4.01163C3.96537 10.2674 3.921 10.2858 3.8883 10.3185C3.85559 10.3512 3.83721 10.3956 3.83721 10.4419C3.83721 10.9233 4.22791 11.314 4.7093 11.314H10.2907ZM5.89814 1.58698C5.52209 1.62605 5.30791 1.69721 5.14395 1.80605C5.01904 1.88823 4.90651 1.98784 4.80977 2.10186C4.68279 2.25256 4.58651 2.45628 4.50279 2.82465C4.41698 3.20349 4.35698 3.69814 4.27186 4.41047L4.20837 4.9393C4.11907 5.68302 4.05977 6.18605 4.06744 6.56279C4.07442 6.92558 4.14349 7.07977 4.23488 7.18302C4.32558 7.28558 4.4707 7.37209 4.83 7.42233C5.20395 7.47465 5.71046 7.47605 6.45977 7.47605H8.54023C9.28953 7.47605 9.79605 7.47465 10.17 7.42233C10.5293 7.37209 10.6744 7.28558 10.7658 7.18302C10.8565 7.07977 10.9256 6.92488 10.9333 6.56279C10.9402 6.18535 10.8809 5.68233 10.7916 4.9386L10.7288 4.40977C10.643 3.69744 10.5823 3.20279 10.4972 2.82395C10.4135 2.45558 10.3172 2.25186 10.1902 2.10116C10.0935 1.98713 9.98097 1.88752 9.85605 1.80535C9.69209 1.69651 9.47791 1.62535 9.10186 1.58628C8.71605 1.54651 8.21791 1.54581 7.5 1.54581C6.78209 1.54581 6.28395 1.54581 5.89814 1.58628" fill="#273266"/>
</svg>
