<svg width="14" height="14" viewBox="0 0 14 14" fill="none" xmlns="http://www.w3.org/2000/svg">
<path d="M1.84297 14C1.33163 14 0.862205 13.8155 0.518519 13.48C0.107772 13.069 -0.068263 12.4736 0.0239455 11.8445L0.384398 9.32005C0.451458 8.83361 0.769997 8.20458 1.11368 7.86071L7.71917 1.25176C9.38731 -0.417253 11.0806 -0.417253 12.7487 1.25176C13.6624 2.16594 14.0732 3.0969 13.9893 4.02786C13.9139 4.78269 13.5115 5.52074 12.7487 6.27557L6.14324 12.8845C5.79955 13.2284 5.17086 13.5471 4.68467 13.6142L2.16151 13.9748C2.05253 14 1.94356 14 1.84297 14ZM8.60772 2.14078L2.00224 8.74974C1.84297 8.90909 1.65855 9.27812 1.62502 9.49618L1.26457 12.0207C1.23104 12.2639 1.28133 12.4652 1.40707 12.591C1.53281 12.7168 1.73399 12.7671 1.97709 12.7336L4.50025 12.3729C4.7182 12.3394 5.09542 12.1549 5.2463 11.9955L11.8518 5.38655C12.3967 4.8414 12.6817 4.35495 12.7236 3.90205C12.7739 3.3569 12.4889 2.77819 11.8518 2.13239C10.5106 0.790475 9.58849 1.16789 8.60772 2.14078Z" fill="#717171"/>
<path d="M11.3572 7.40782C11.2985 7.40782 11.2399 7.39943 11.1896 7.38266C8.98494 6.76202 7.23298 5.00914 6.61267 2.80335C6.52046 2.46787 6.71326 2.12401 7.04856 2.02336C7.38386 1.93111 7.72755 2.12401 7.81976 2.45949C8.32272 4.24592 9.73937 5.66332 11.5249 6.16654C11.8602 6.2588 12.053 6.61105 11.9608 6.94653C11.8853 7.23169 11.6338 7.40782 11.3572 7.40782Z" fill="#717171"/>
</svg>
