<svg width="14" height="15" viewBox="0 0 14 15" fill="none" xmlns="http://www.w3.org/2000/svg">
<path d="M13.3997 10.0927L10.0253 8.58049C9.87246 8.51498 9.70564 8.48864 9.54 8.50386C9.37436 8.51908 9.21514 8.57537 9.07674 8.66764C9.0627 8.67665 9.04933 8.68668 9.03674 8.69764L7.27311 10.1977C7.25481 10.2077 7.23444 10.2133 7.21361 10.214C7.19278 10.2147 7.17207 10.2106 7.15311 10.202C6.0195 9.65482 4.84517 8.48763 4.29587 7.36973C4.28672 7.35105 4.28196 7.33053 4.28196 7.30973C4.28196 7.28893 4.28672 7.26841 4.29587 7.24973L5.80092 5.46395C5.81172 5.45074 5.82173 5.4369 5.83092 5.42252C5.92191 5.28359 5.97688 5.12418 5.99084 4.95869C6.00481 4.79321 5.97734 4.62684 5.91092 4.47463L4.40944 1.10593C4.32417 0.907076 4.17671 0.741236 3.98919 0.633306C3.80166 0.525375 3.58419 0.481175 3.36941 0.50734C2.43597 0.630057 1.57914 1.08846 0.959057 1.79689C0.338971 2.50532 -0.00194841 3.41529 8.37698e-06 4.35677C8.37698e-06 9.94983 4.55016 14.5 10.1432 14.5C11.0846 14.5018 11.9945 14.1608 12.7029 13.5408C13.4113 12.9207 13.8698 12.064 13.9926 11.1306C14.0187 10.9168 13.9751 10.7003 13.8683 10.5133C13.7615 10.3263 13.5972 10.1788 13.3997 10.0927ZM10.1432 13.6428C5.02303 13.6428 0.85718 9.47695 0.85718 4.35677C0.854792 3.62383 1.11933 2.9151 1.60138 2.36299C2.08343 1.81087 2.75 1.45315 3.47655 1.35666H3.49298C3.52177 1.35719 3.54972 1.36642 3.57317 1.38311C3.59663 1.39981 3.61449 1.42321 3.62442 1.45023L5.13161 4.81535C5.14021 4.83406 5.14466 4.85441 5.14466 4.875C5.14466 4.89559 5.14021 4.91594 5.13161 4.93464L3.6237 6.72471C3.61245 6.73749 3.60218 6.7511 3.59299 6.76543C3.49863 6.90947 3.44307 7.07544 3.43168 7.24726C3.42029 7.41909 3.45346 7.59094 3.52798 7.74618C4.16158 9.04337 5.46876 10.3406 6.78024 10.9741C6.93638 11.0483 7.10907 11.0806 7.28146 11.0681C7.45384 11.0556 7.62004 10.9986 7.76384 10.9027C7.77741 10.8934 7.79098 10.8834 7.80384 10.8727L9.56676 9.37266C9.58417 9.36331 9.6034 9.35783 9.62312 9.35659C9.64285 9.35536 9.66261 9.35841 9.68105 9.36552L13.0562 10.8777C13.0837 10.8895 13.1069 10.9096 13.1224 10.9352C13.1379 10.9608 13.145 10.9907 13.1426 11.0206C13.0466 11.7475 12.6892 12.4145 12.1372 12.8971C11.5852 13.3797 10.8764 13.6448 10.1432 13.6428Z" fill="#717171"/>
</svg>
