<svg width="20" height="20" viewBox="0 0 20 20" fill="none" xmlns="http://www.w3.org/2000/svg">
    <path fill-rule="evenodd" clip-rule="evenodd" d="M8 2C4.68629 2 2 4.68629 2 8C2 11.3137 4.68629 14 8 14C9.65713 14 11.1558 13.3295 12.2426 12.2426C13.3295 11.1558 14 9.65713 14 8C14 4.68629 11.3137 2 8 2ZM0 8C0 3.58172 3.58172 0 8 0C12.4183 0 16 3.58172 16 8C16 9.84829 15.3723 11.5513 14.3198 12.9056L19.7071 18.2929C20.0976 18.6834 20.0976 19.3166 19.7071 19.7071C19.3166 20.0976 18.6834 20.0976 18.2929 19.7071L12.9056 14.3198C11.5513 15.3723 9.84829 16 8 16C3.58172 16 0 12.4183 0 8Z" fill="#273266"/>
</svg>
