<svg width="29" height="25" viewBox="0 0 29 25" fill="none" xmlns="http://www.w3.org/2000/svg">
<path d="M9.84312 8.33868L10.1289 8.31479L10.2526 8.056L13.6208 1.00788C13.7592 0.718294 14.0945 0.5 14.5 0.5C14.9055 0.5 15.2408 0.718294 15.3792 1.00788L18.7474 8.056L18.8711 8.31479L19.1569 8.33867L27.6413 9.04778C28.0459 9.0816 28.3532 9.32698 28.4586 9.62276C28.5606 9.90899 28.4731 10.2373 28.1928 10.4593L21.7983 15.5214L21.5453 15.7217L21.6236 16.0347L23.4943 23.5143C23.5668 23.8043 23.4496 24.1277 23.1441 24.3301C22.8316 24.5371 22.4028 24.5577 22.0647 24.3768L14.7359 20.4553L14.5 20.3291L14.2641 20.4553L6.93529 24.3768L7.17118 24.8176L6.93529 24.3768C6.59719 24.5577 6.16839 24.5371 5.85587 24.3301L5.57973 24.7469L5.85587 24.3301C5.55038 24.1277 5.43319 23.8043 5.50572 23.5143L7.37641 16.0347L7.45471 15.7217L7.2017 15.5214L0.807193 10.4593C0.526879 10.2373 0.439391 9.90899 0.541387 9.62276C0.646787 9.32698 0.954076 9.0816 1.35871 9.04778L9.84312 8.33868Z" stroke="#273266"/>
</svg>
