<svg width="14" height="13" viewBox="0 0 14 13" fill="none" xmlns="http://www.w3.org/2000/svg">
<path d="M7.64221 0.411991C7.53124 0.161861 7.27893 0 7 0C6.72107 0 6.46876 0.161861 6.35779 0.411991L4.73175 4.07701L0.635826 4.44575C0.356912 4.47086 0.120163 4.65607 0.0339849 4.91656C-0.0521935 5.17706 0.0287916 5.46269 0.239858 5.64267L3.32686 8.27497L2.42376 12.1644C2.36193 12.4307 2.46802 12.7074 2.69366 12.8684C2.91931 13.0294 3.2213 13.0439 3.46195 12.9052L7 10.866L10.5381 12.9052C10.7787 13.0439 11.0807 13.0294 11.3063 12.8684C11.532 12.7074 11.6381 12.4307 11.5762 12.1644L10.6731 8.27497L13.7601 5.64267C13.9712 5.46269 14.0522 5.17706 13.966 4.91656C13.8798 4.65607 13.6431 4.47086 13.3642 4.44575L9.26825 4.07701L7.64221 0.411991Z" fill="url(#paint0_linear_4758_6810)" fill-opacity="0.8"/>
<defs>
<linearGradient id="paint0_linear_4758_6810" x1="-2.43478e-08" y1="6.5" x2="23.7343" y2="6.75338" gradientUnits="userSpaceOnUse">
<stop stop-color="#1624EC"/>
<stop offset="0.664583" stop-color="#777FED"/>
<stop offset="1" stop-color="#E9E9EF"/>
</linearGradient>
</defs>
</svg>
