<svg width="29" height="25" viewBox="0 0 29 25" fill="none" xmlns="http://www.w3.org/2000/svg">
<path d="M15.8303 0.79229C15.6004 0.311271 15.0778 0 14.5 0C13.9222 0 13.3996 0.311271 13.1697 0.79229L9.80147 7.84041L1.31707 8.54952C0.739318 8.59781 0.24891 8.95397 0.0703974 9.45493C-0.108115 9.95588 0.0596397 10.5052 0.496849 10.8513L6.89135 15.9134L5.02066 23.393C4.89257 23.9051 5.11233 24.4373 5.57973 24.7469C6.04714 25.0566 6.67268 25.0844 7.17118 24.8176L14.5 20.8961L21.8288 24.8176C22.3273 25.0844 22.9529 25.0566 23.4203 24.7469C23.8877 24.4373 24.1074 23.9051 23.9793 23.393L22.1086 15.9134L28.5032 10.8513C28.9404 10.5052 29.1081 9.95588 28.9296 9.45493C28.7511 8.95397 28.2607 8.59781 27.6829 8.54952L19.1985 7.84041L15.8303 0.79229Z" fill="url(#paint0_linear_4821_10067)" fill-opacity="0.8"/>
<defs>
<linearGradient id="paint0_linear_4821_10067" x1="-5.04347e-08" y1="12.5" x2="49.1631" y2="13.0653" gradientUnits="userSpaceOnUse">
<stop stop-color="#1624EC"/>
<stop offset="0.664583" stop-color="#777FED"/>
<stop offset="1" stop-color="#E9E9EF"/>
</linearGradient>
</defs>
</svg>
