<svg width="8" height="11" viewBox="0 0 8 11" fill="none" xmlns="http://www.w3.org/2000/svg">
    <path d="M1.5 10L3 8M6 10L5 8L3.5 6.5L4 3.5M4 3.5L2 4L1 5.5M4 3.5L5.5 5L7 5.5M4.5 1.5L4.00078 1.47215M4.00078 1.47215C4.0076 1.34969 4.05926 1.23363 4.14645 1.14645C4.24021 1.05268 4.36739 1 4.5 1C4.63261 1 4.75979 1.05268 4.85355 1.14645C4.94732 1.24021 5 1.36739 5 1.5C5 1.63261 4.94732 1.75979 4.85355 1.85355C4.75979 1.94732 4.63261 2 4.5 2C4.36739 2 4.24021 1.94732 4.14645 1.85355C4.05268 1.75979 4 1.63261 4 1.5C4 1.49069 4.00026 1.4814 4.00078 1.47215Z" stroke="#717171" stroke-width="0.777778" stroke-linecap="round" stroke-linejoin="round" />
</svg>