<svg width="9" height="13" viewBox="0 0 9 13" fill="none" xmlns="http://www.w3.org/2000/svg">
<path fill-rule="evenodd" clip-rule="evenodd" d="M0.8 2.968V1.7C0.8 1.38174 0.926428 1.07652 1.15147 0.851472C1.37652 0.626428 1.68174 0.5 2 0.5H5.2C5.51826 0.5 5.82348 0.626428 6.04853 0.851472C6.27357 1.07652 6.4 1.38174 6.4 1.7V2.968C6.63406 3.05075 6.8367 3.20407 6.97998 3.40681C7.12326 3.60955 7.20013 3.85174 7.2 4.1V8.9C7.20013 9.14826 7.12326 9.39045 6.97998 9.59319C6.8367 9.79593 6.63406 9.94925 6.4 10.032V11.3C6.4 11.6183 6.27357 11.9235 6.04853 12.1485C5.82348 12.3736 5.51826 12.5 5.2 12.5H2C1.68174 12.5 1.37652 12.3736 1.15147 12.1485C0.926428 11.9235 0.8 11.6183 0.8 11.3V10.032C0.565938 9.94925 0.363303 9.79593 0.220023 9.59319C0.0767422 9.39045 -0.000129984 9.14826 1.64989e-07 8.9V4.1C-0.000129984 3.85174 0.0767422 3.60955 0.220023 3.40681C0.363303 3.20407 0.565938 3.05075 0.8 2.968ZM1.6 1.7C1.6 1.59391 1.64214 1.49217 1.71716 1.41716C1.79217 1.34214 1.89391 1.3 2 1.3H5.2C5.30609 1.3 5.40783 1.34214 5.48284 1.41716C5.55786 1.49217 5.6 1.59391 5.6 1.7V2.9H1.6V1.7ZM1.6 10.1H5.6V11.3C5.6 11.4061 5.55786 11.5078 5.48284 11.5828C5.40783 11.6579 5.30609 11.7 5.2 11.7H2C1.89391 11.7 1.79217 11.6579 1.71716 11.5828C1.64214 11.5078 1.6 11.4061 1.6 11.3V10.1Z" fill="url(#paint0_linear_6016_697)"/>
<path d="M8 5.3V7.7H8.8V5.3H8Z" fill="url(#paint1_linear_6016_697)"/>
<defs>
<linearGradient id="paint0_linear_6016_697" x1="-1.56949e-06" y1="6.5" x2="25.6886" y2="-5.86947" gradientUnits="userSpaceOnUse">
<stop stop-color="#00976A"/>
<stop offset="0.664583" stop-color="#52FFC1"/>
<stop offset="1" stop-color="white"/>
</linearGradient>
<linearGradient id="paint1_linear_6016_697" x1="-1.56949e-06" y1="6.5" x2="25.6886" y2="-5.86947" gradientUnits="userSpaceOnUse">
<stop stop-color="#00976A"/>
<stop offset="0.664583" stop-color="#52FFC1"/>
<stop offset="1" stop-color="white"/>
</linearGradient>
</defs>
</svg>
