<svg width="15" height="15" viewBox="0 0 15 15" fill="none" xmlns="http://www.w3.org/2000/svg">
<path d="M7.5 15C3.36279 15 0 11.6372 0 7.5C0 3.36279 3.36279 0 7.5 0C11.6372 0 15 3.36279 15 7.5C15 11.6372 11.6372 15 7.5 15ZM7.5 1.04651C3.94186 1.04651 1.04651 3.94186 1.04651 7.5C1.04651 11.0581 3.94186 13.9535 7.5 13.9535C11.0581 13.9535 13.9535 11.0581 13.9535 7.5C13.9535 3.94186 11.0581 1.04651 7.5 1.04651Z" fill="#717171"/>
<path d="M10.0884 10.2419C9.99767 10.2419 9.90698 10.2209 9.82326 10.1651L7.66046 8.87442C7.12326 8.55349 6.72558 7.84884 6.72558 7.22791V4.36744C6.72558 4.0814 6.96279 3.84419 7.24884 3.84419C7.53488 3.84419 7.77209 4.0814 7.77209 4.36744V7.22791C7.77209 7.47907 7.9814 7.84884 8.19767 7.97442L10.3605 9.26512C10.6116 9.41163 10.6884 9.73256 10.5419 9.98372C10.4372 10.1512 10.2628 10.2419 10.0884 10.2419Z" fill="#717171"/>
</svg>
