<svg width="160" height="109" viewBox="0 0 160 109" fill="none" xmlns="http://www.w3.org/2000/svg">
<rect x="1" y="1" width="158" height="107" rx="3" fill="white" stroke="#EBEBEB" stroke-width="2" stroke-dasharray="14 14"/>
<g opacity="0.2" clip-path="url(#clip0_4768_4044)">
<path d="M92.5422 80.9997C92.1712 80.9997 91.7914 80.9534 91.416 80.854L57.2685 71.7093C54.9277 71.0644 53.532 68.6397 54.146 66.2989L58.4544 50.2399C58.6134 49.6502 59.2185 49.308 59.8059 49.4581C60.3955 49.6149 60.7445 50.2222 60.5877 50.8096L56.2814 66.8642C55.9745 68.0346 56.6767 69.2536 57.8493 69.5782L91.9835 78.7185C93.1562 79.0277 94.3663 78.3299 94.6711 77.1639L96.3958 70.7729C96.5548 70.1833 97.1599 69.8322 97.7495 69.9934C98.3391 70.1524 98.6858 70.7597 98.529 71.3471L96.8065 77.7292C96.2876 79.6946 94.4988 80.9997 92.5422 80.9997Z" fill="#717171"/>
<path d="M102.583 67.7503H67.2492C64.8134 67.7503 62.8325 65.7695 62.8325 63.3337V36.8337C62.8325 34.3979 64.8134 32.417 67.2492 32.417H102.583C105.018 32.417 106.999 34.3979 106.999 36.8337V63.3337C106.999 65.7695 105.018 67.7503 102.583 67.7503ZM67.2492 34.6253C66.0324 34.6253 65.0408 35.6169 65.0408 36.8337V63.3337C65.0408 64.5505 66.0324 65.542 67.2492 65.542H102.583C103.799 65.542 104.791 64.5505 104.791 63.3337V36.8337C104.791 35.6169 103.799 34.6253 102.583 34.6253H67.2492Z" fill="#717171"/>
<path d="M73.8742 47.8753C71.4384 47.8753 69.4575 45.8945 69.4575 43.4587C69.4575 41.0229 71.4384 39.042 73.8742 39.042C76.3099 39.042 78.2908 41.0229 78.2908 43.4587C78.2908 45.8945 76.3099 47.8753 73.8742 47.8753ZM73.8742 41.2503C72.6574 41.2503 71.6658 42.2419 71.6658 43.4587C71.6658 44.6755 72.6574 45.667 73.8742 45.667C75.0909 45.667 76.0825 44.6755 76.0825 43.4587C76.0825 42.2419 75.0909 41.2503 73.8742 41.2503Z" fill="#717171"/>
<path d="M64.0919 65.387C63.8092 65.387 63.5265 65.2788 63.3101 65.0646C62.8795 64.634 62.8795 63.9339 63.3101 63.5033L73.7401 53.0734C74.99 51.8234 77.174 51.8234 78.424 53.0734L81.5289 56.1783L90.1237 45.8654C90.7487 45.1167 91.6673 44.6817 92.6456 44.6729H92.6699C93.6372 44.6729 94.5536 45.0924 95.1852 45.8278L106.735 59.3031C107.132 59.7646 107.079 60.4624 106.616 60.8599C106.154 61.2574 105.458 61.2066 105.059 60.7407L93.5091 47.2654C93.2949 47.0181 92.999 46.8812 92.6699 46.8812C92.4402 46.8613 92.0361 47.0203 91.8219 47.2787L82.452 58.5213C82.2532 58.7598 81.9639 58.9034 81.6525 58.9166C81.339 58.9387 81.0408 58.815 80.8222 58.5942L76.8627 54.6346C76.4453 54.2195 75.7187 54.2195 75.3014 54.6346L64.8714 65.0646C64.6572 65.2788 64.3745 65.387 64.0919 65.387Z" fill="#717171"/>
</g>
<defs>
<clipPath id="clip0_4768_4044">
<rect width="53" height="53" fill="white" transform="translate(54 28)"/>
</clipPath>
</defs>
</svg>
