<svg width="23" height="19" viewBox="0 0 23 19" fill="none" xmlns="http://www.w3.org/2000/svg">
<path d="M22.1154 3H0.884615C0.401026 3 0 2.32 0 1.5C0 0.68 0.401026 0 0.884615 0H22.1154C22.599 0 23 0.68 23 1.5C23 2.32 22.599 3 22.1154 3Z" fill="#273266"/>
<path d="M22.1154 11H0.884615C0.401026 11 0 10.32 0 9.5C0 8.68 0.401026 8 0.884615 8H22.1154C22.599 8 23 8.68 23 9.5C23 10.32 22.599 11 22.1154 11Z" fill="#273266"/>
<path d="M22.1154 19H0.884615C0.401026 19 0 18.32 0 17.5C0 16.68 0.401026 16 0.884615 16H22.1154C22.599 16 23 16.68 23 17.5C23 18.32 22.599 19 22.1154 19Z" fill="#273266"/>
</svg>
