<svg width="19" height="21" viewBox="0 0 19 21" fill="none" xmlns="http://www.w3.org/2000/svg">
<path d="M8.43326 21C7.95021 21 7.4672 20.8827 7.0244 20.6481C6.12875 20.1592 5.59534 19.2891 5.59534 18.3017V13.0712C5.59534 12.5726 5.26322 11.8394 4.95125 11.4581L1.12711 7.55727C0.493109 6.94135 0 5.86592 0 5.07402V2.80589C0 1.23187 1.22777 0 2.78762 0H16.2124C17.7521 0 19 1.21231 19 2.70812V4.87851C19 5.90505 18.366 7.08798 17.7622 7.6648C17.4704 7.94832 16.9873 7.94832 16.6955 7.6648C16.4036 7.38128 16.4036 6.91201 16.6955 6.62849C17.0678 6.26676 17.4905 5.45532 17.4905 4.87851V2.70812C17.4905 2.02376 16.9168 1.46648 16.2124 1.46648H2.78762C2.07311 1.46648 1.50953 2.0531 1.50953 2.80589V5.07402C1.50953 5.43575 1.81144 6.14946 2.20392 6.53075L6.07843 10.4902C6.59167 11.1062 7.0948 12.1425 7.0948 13.0712V18.3017C7.0948 18.9469 7.54768 19.2598 7.74895 19.3673C8.18168 19.6019 8.69495 19.5922 9.09749 19.3575L10.5064 18.4777C10.7982 18.3115 11.08 17.7737 11.08 17.412C11.08 17.0112 11.4221 16.6788 11.8348 16.6788C12.2474 16.6788 12.5895 17.0112 12.5895 17.412C12.5895 18.2919 12.0259 19.2989 11.3114 19.7193L9.91264 20.5992C9.45978 20.8631 8.94651 21 8.43326 21Z" fill="white"/>
<path d="M13.6063 15.6424C11.4124 15.6424 9.63114 13.912 9.63114 11.7807C9.63114 9.64942 11.4124 7.91897 13.6063 7.91897C15.8001 7.91897 17.5814 9.64942 17.5814 11.7807C17.5814 13.912 15.8001 15.6424 13.6063 15.6424ZM13.6063 9.38545C12.2477 9.38545 11.1407 10.4609 11.1407 11.7807C11.1407 13.1005 12.2477 14.1759 13.6063 14.1759C14.9648 14.1759 16.0718 13.1005 16.0718 11.7807C16.0718 10.4609 14.9648 9.38545 13.6063 9.38545Z" fill="white"/>
<path d="M17.4303 16.229C17.2391 16.229 17.0479 16.1606 16.897 16.0139L15.8906 15.0363C15.5988 14.7528 15.5988 14.2835 15.8906 14C16.1825 13.7165 16.6655 13.7165 16.9573 14L17.9637 14.9776C18.2555 15.2611 18.2555 15.7304 17.9637 16.0139C17.8228 16.1508 17.6215 16.229 17.4303 16.229Z" fill="white"/>
</svg>
