<svg width="14" height="12" viewBox="0 0 14 12" fill="none" xmlns="http://www.w3.org/2000/svg">
<path d="M7.00332 8.88027C5.41603 8.88027 4.12761 7.5898 4.12761 6C4.12761 4.4102 5.41603 3.11973 7.00332 3.11973C8.59061 3.11973 9.87903 4.4102 9.87903 6C9.87903 7.5898 8.59061 8.88027 7.00332 8.88027ZM7.00332 4.11752C5.96727 4.11752 5.12381 4.96231 5.12381 6C5.12381 7.03769 5.96727 7.88248 7.00332 7.88248C8.03937 7.88248 8.88283 7.03769 8.88283 6C8.88283 4.96231 8.03937 4.11752 7.00332 4.11752Z" fill="#273266"/>
<path d="M7.00332 12C4.50617 12 2.14848 10.5366 0.527989 7.99557C-0.175996 6.898 -0.175996 5.10865 0.527989 4.00443C2.15512 1.46341 4.51281 0 7.00332 0C9.49383 0 11.8515 1.46341 13.472 4.00443C14.176 5.102 14.176 6.89135 13.472 7.99557C11.8515 10.5366 9.49383 12 7.00332 12ZM7.00332 0.997783C4.85816 0.997783 2.80598 2.28825 1.37144 4.54324C0.87334 5.32151 0.87334 6.67849 1.37144 7.45676C2.80598 9.71175 4.85816 11.0022 7.00332 11.0022C9.14848 11.0022 11.2007 9.71175 12.6352 7.45676C13.1333 6.67849 13.1333 5.32151 12.6352 4.54324C11.2007 2.28825 9.14848 0.997783 7.00332 0.997783Z" fill="#273266"/>
</svg>
