<svg width="21" height="20" viewBox="0 0 21 20" fill="none" xmlns="http://www.w3.org/2000/svg">
<path d="M10.5 19C10.226 19 9.96093 18.9627 9.74 18.8788C6.36419 17.657 1 13.3202 1 6.91295C1 3.6487 3.50093 1 6.57628 1C8.06977 1 9.46605 1.61554 10.5 2.71606C11.534 1.61554 12.9302 1 14.4237 1C17.4991 1 20 3.65803 20 6.91295C20 13.3295 14.6358 17.657 11.26 18.8788C11.0391 18.9627 10.774 19 10.5 19ZM6.57628 2.39896C4.23442 2.39896 2.32558 4.4228 2.32558 6.91295C2.32558 13.2829 8.13163 16.8269 10.173 17.5637C10.3321 17.6197 10.6767 17.6197 10.8358 17.5637C12.8684 16.8269 18.6833 13.2922 18.6833 6.91295C18.6833 4.4228 16.7744 2.39896 14.4326 2.39896C13.0893 2.39896 11.8433 3.06114 11.0391 4.20829C10.7916 4.56269 10.226 4.56269 9.9786 4.20829C9.15674 3.05181 7.91953 2.39896 6.57628 2.39896Z" fill="white"/>
<path d="M12.5003 2.5L10.5003 3.5L10.0003 4L9.50035 3L6.50035 2C6.50035 2 4.57738 2.07264 3.5 3C2.50726 3.85451 2.22066 4.70883 2.00021 6C1.76784 7.36102 2.00035 9.5 2.00035 9.5L4.50035 13.5L7.50035 17L11.0003 18L13.5003 16.5L16.0003 14.5L18.0003 12L19.0003 10V7L18.5003 4.5L16.0003 2H14.5003L12.5003 2.5Z" fill="white"/>
<path d="M10.5 19C10.226 19 9.96093 18.9627 9.74 18.8788C6.36419 17.657 1 13.3202 1 6.91295C1 3.6487 3.50093 1 6.57628 1C8.06977 1 9.46605 1.61554 10.5 2.71606C11.534 1.61554 12.9302 1 14.4237 1C17.4991 1 20 3.65803 20 6.91295C20 13.3295 14.6358 17.657 11.26 18.8788C11.0391 18.9627 10.774 19 10.5 19ZM6.57628 2.39896C4.23442 2.39896 2.32558 4.4228 2.32558 6.91295C2.32558 13.2829 8.13163 16.8269 10.173 17.5637C10.3321 17.6197 10.6767 17.6197 10.8358 17.5637C12.8684 16.8269 18.6833 13.2922 18.6833 6.91295C18.6833 4.4228 16.7744 2.39896 14.4326 2.39896C13.0893 2.39896 11.8433 3.06114 11.0391 4.20829C10.7916 4.56269 10.226 4.56269 9.9786 4.20829C9.15674 3.05181 7.91953 2.39896 6.57628 2.39896Z" stroke="white"/>
<path d="M12.5003 2.5L10.5003 3.5L10.0003 4L9.50035 3L6.50035 2C6.50035 2 4.57738 2.07264 3.5 3C2.50726 3.85451 2.22066 4.70883 2.00021 6C1.76784 7.36102 2.00035 9.5 2.00035 9.5L4.50035 13.5L7.50035 17L11.0003 18L13.5003 16.5L16.0003 14.5L18.0003 12L19.0003 10V7L18.5003 4.5L16.0003 2H14.5003L12.5003 2.5Z" stroke="white"/>
</svg>
