<svg width="20" height="18" viewBox="0 0 20 18" fill="none" xmlns="http://www.w3.org/2000/svg">
<path d="M10 18C9.71163 18 9.43256 17.9627 9.2 17.8788C5.64651 16.657 0 12.3202 0 5.91295C0 2.6487 2.63256 0 5.86977 0C7.44186 0 8.91163 0.615544 10 1.71606C11.0884 0.615544 12.5581 0 14.1302 0C17.3674 0 20 2.65803 20 5.91295C20 12.3295 14.3535 16.657 10.8 17.8788C10.5674 17.9627 10.2884 18 10 18ZM5.86977 1.39896C3.40465 1.39896 1.39535 3.4228 1.39535 5.91295C1.39535 12.2829 7.50698 15.8269 9.65581 16.5637C9.82326 16.6197 10.186 16.6197 10.3535 16.5637C12.493 15.8269 18.614 12.2922 18.614 5.91295C18.614 3.4228 16.6047 1.39896 14.1395 1.39896C12.7256 1.39896 11.414 2.06114 10.5674 3.20829C10.307 3.56269 9.71163 3.56269 9.45116 3.20829C8.58605 2.05181 7.28372 1.39896 5.86977 1.39896Z" fill="#273266"/>
<path d="M10 2.18182L5.78947 0L3.68421 0.545455L1.05263 3.27273L0 6.54545L1.57895 10.3636L4.73684 15.2727L10 18C11.5789 17.0909 15.1579 14.9455 16.8421 13.6364C18.9474 12 20 7.09091 20 6C20 5.12727 18.5965 2.72727 17.8947 1.63636L13.6842 0L10 2.18182Z" fill="#273266"/>
</svg>

