<svg width="21" height="21" viewBox="0 0 21 21" fill="none" xmlns="http://www.w3.org/2000/svg">
<path d="M8.5 1L1.5 6.5L1 7L0.5 16.5L2 19L3.5 20L10 20.5L17 20L19 19.5L20 17L20.5 9.5L19.5 6.5L11 0.5L8.5 1Z" fill="white"/>
<path d="M16.1553 21H4.84465C2.16837 21 0 18.8195 0 16.1403V8.8947C0 7.56487 0.820465 5.89282 1.87535 5.07145L7.14 0.964647C8.72233 -0.267396 11.2521 -0.326064 12.893 0.827753L18.9293 5.06168C20.0916 5.87326 21 7.61376 21 9.03159V16.1501C21 18.8195 18.8316 21 16.1553 21ZM8.0386 2.11846L2.77395 6.22527C2.08047 6.77285 1.46512 8.01467 1.46512 8.8947V16.1403C1.46512 18.0079 2.97907 19.5333 4.84465 19.5333H16.1553C18.0209 19.5333 19.5349 18.0177 19.5349 16.1501V9.03159C19.5349 8.09289 18.8609 6.7924 18.0893 6.26438L12.053 2.03046C10.9395 1.24821 9.10326 1.28732 8.0386 2.11846Z" fill="#4160E1"/>
<path d="M10.5 17.85C9.926 17.85 9.45 17.4533 9.45 16.975V13.475C9.45 12.9967 9.926 12.6 10.5 12.6C11.074 12.6 11.55 12.9967 11.55 13.475V16.975C11.55 17.4533 11.074 17.85 10.5 17.85Z" fill="#4160E1"/>
<path d="M16.1553 21H4.84465C2.16837 21 0 18.8195 0 16.1403V8.8947C0 7.56487 0.820465 5.89282 1.87535 5.07145L7.14 0.964647C8.72233 -0.267396 11.2521 -0.326064 12.893 0.827753L18.9293 5.06168C20.0916 5.87326 21 7.61376 21 9.03159V16.1501C21 18.8195 18.8316 21 16.1553 21ZM8.0386 2.11846L2.77395 6.22527C2.08047 6.77285 1.46512 8.01467 1.46512 8.8947V16.1403C1.46512 18.0079 2.97907 19.5333 4.84465 19.5333H16.1553C18.0209 19.5333 19.5349 18.0177 19.5349 16.1501V9.03159C19.5349 8.09289 18.8609 6.7924 18.0893 6.26438L12.053 2.03046C10.9395 1.24821 9.10326 1.28732 8.0386 2.11846Z" fill="white"/>
</svg>
