<svg width="16" height="14" viewBox="0 0 16 14" fill="none" xmlns="http://www.w3.org/2000/svg">
<path d="M11.2994 14H8.36846C7.93654 14 6.99557 13.8822 6.49423 13.4317L4.15723 11.8101L4.86682 10.9855L7.25781 12.6487C7.45063 12.815 7.93654 12.9536 8.36846 12.9536H11.2994C11.9935 12.9536 12.7417 12.4546 12.8959 11.8933L14.7624 6.79974C14.8858 6.49482 14.8627 6.21762 14.7007 6.01665C14.531 5.80182 14.2225 5.67708 13.8446 5.67708H10.7594C10.3584 5.67708 9.98816 5.52462 9.73364 5.26128C9.4714 4.99101 9.35571 4.63065 9.41741 4.25643L9.80305 2.0319C9.89561 1.64382 9.60252 1.20723 9.18602 1.08249C8.80809 0.957753 8.32218 1.13793 8.1525 1.35969L4.99022 5.58699L4.03383 5.0118L7.1961 0.784503C7.68202 0.133084 8.74639 -0.178766 9.57938 0.105364C10.5435 0.389494 11.1605 1.34583 10.9446 2.23287L10.5666 4.41582C10.5589 4.46433 10.5589 4.53363 10.6129 4.58907C10.6515 4.62372 10.7055 4.64451 10.7672 4.64451H13.8523C14.6082 4.64451 15.2638 4.92864 15.6494 5.42067C16.0273 5.89884 16.1045 6.52947 15.8577 7.13931L14.0143 12.1843C13.7289 13.1892 12.5411 14 11.2994 14Z" fill="#273266"/>
<path d="M2.89233 13.2377H2.12104C0.694158 13.2377 0 12.6348 0 11.4013V4.60986C0 3.37632 0.694158 2.77341 2.12104 2.77341H2.89233C4.31921 2.77341 5.01337 3.37632 5.01337 4.60986V11.4013C5.01337 12.6348 4.31921 13.2377 2.89233 13.2377ZM2.12104 3.81291C1.28034 3.81291 1.15693 3.99309 1.15693 4.60986V11.4013C1.15693 12.018 1.28034 12.1982 2.12104 12.1982H2.89233C3.73303 12.1982 3.85644 12.018 3.85644 11.4013V4.60986C3.85644 3.99309 3.73303 3.81291 2.89233 3.81291H2.12104Z" fill="#273266"/>
</svg>
