<svg width="55" height="55" viewBox="0 0 55 55" fill="none" xmlns="http://www.w3.org/2000/svg">
<path d="M55 27.5C55 42.6878 42.6878 55 27.5 55C12.3122 55 0 42.6878 0 27.5C0 12.3122 12.3122 0 27.5 0C42.6878 0 55 12.3122 55 27.5Z" fill="white"/>
<path d="M55 27.5C55 42.6878 42.6878 55 27.5 55C12.3122 55 0 42.6878 0 27.5C0 12.3122 12.3122 0 27.5 0C42.6878 0 55 12.3122 55 27.5Z" fill="url(#paint0_linear_4409_3525)" fill-opacity="0.8"/>
<path d="M27.5 41.8C26.6763 41.8 25.9003 41.3714 25.3512 40.6245L23.5605 38.1755C23.5247 38.1265 23.3814 38.0653 23.3217 38.0531H22.7248C17.7467 38.0531 14.6667 36.6694 14.6667 29.7878V23.6653C14.6667 18.2531 17.4482 15.4 22.7248 15.4H32.2752C37.5518 15.4 40.3333 18.2531 40.3333 23.6653V29.7878C40.3333 35.2 37.5518 38.0531 32.2752 38.0531H31.6783C31.5828 38.0531 31.4992 38.102 31.4395 38.1755L29.6488 40.6245C29.0997 41.3714 28.3237 41.8 27.5 41.8ZM22.7248 17.2367C18.451 17.2367 16.4574 19.2816 16.4574 23.6653V29.7878C16.4574 35.3224 18.3078 36.2163 22.7248 36.2163H23.3217C23.9305 36.2163 24.6229 36.5714 24.993 37.0735L26.7837 39.5225C27.2015 40.0857 27.7984 40.0857 28.2163 39.5225L30.007 37.0735C30.4009 36.5347 31.0217 36.2163 31.6783 36.2163H32.2752C36.549 36.2163 38.5426 34.1714 38.5426 29.7878V23.6653C38.5426 19.2816 36.549 17.2367 32.2752 17.2367H22.7248Z" fill="white"/>
<path d="M33.469 24.5837H21.531C21.0415 24.5837 20.6357 24.1673 20.6357 23.6653C20.6357 23.1633 21.0415 22.7469 21.531 22.7469H33.469C33.9584 22.7469 34.3643 23.1633 34.3643 23.6653C34.3643 24.1673 33.9584 24.5837 33.469 24.5837Z" fill="white"/>
<path d="M28.6938 30.7061H21.531C21.0415 30.7061 20.6357 30.2898 20.6357 29.7878C20.6357 29.2857 21.0415 28.8694 21.531 28.8694H28.6938C29.1833 28.8694 29.5891 29.2857 29.5891 29.7878C29.5891 30.2898 29.1833 30.7061 28.6938 30.7061Z" fill="white"/>
<defs>
<linearGradient id="paint0_linear_4409_3525" x1="-9.56521e-08" y1="27.5" x2="93.2434" y2="28.4243" gradientUnits="userSpaceOnUse">
<stop stop-color="#1624EC"/>
<stop offset="0.664583" stop-color="#777FED"/>
<stop offset="1" stop-color="#E9E9EF"/>
</linearGradient>
</defs>
</svg>
