<svg width="13" height="14" viewBox="0 0 13 14" fill="none" xmlns="http://www.w3.org/2000/svg">
<path d="M6.49989 7.48837C4.29379 7.48837 2.49829 5.80837 2.49829 3.74419C2.49829 1.68 4.29379 0 6.49989 0C8.706 0 10.5015 1.68 10.5015 3.74419C10.5015 5.80837 8.706 7.48837 6.49989 7.48837ZM6.49989 0.976744C4.87141 0.976744 3.54218 2.22047 3.54218 3.74419C3.54218 5.26791 4.87141 6.51163 6.49989 6.51163C8.12837 6.51163 9.4576 5.26791 9.4576 3.74419C9.4576 2.22047 8.12837 0.976744 6.49989 0.976744Z" fill="#273266"/>
<path d="M12.4781 14C12.1927 14 11.9561 13.7786 11.9561 13.5116C11.9561 11.2651 9.50642 9.44186 6.5 9.44186C3.49357 9.44186 1.0439 11.2651 1.0439 13.5116C1.0439 13.7786 0.807281 14 0.521949 14C0.236617 14 0 13.7786 0 13.5116C0 10.7312 2.91595 8.46512 6.5 8.46512C10.084 8.46512 13 10.7312 13 13.5116C13 13.7786 12.7634 14 12.4781 14Z" fill="#273266"/>
</svg>

