<svg width="610" height="454" viewBox="0 0 610 454" fill="none" xmlns="http://www.w3.org/2000/svg">
<path d="M609.298 398.968H0V399.273H609.298V398.968Z" fill="#E6E6E6"/>
<path d="M152.105 417.405H111.745V417.71H152.105V417.405Z" fill="#E6E6E6"/>
<path d="M98.9744 417.405H75.5895V417.71H98.9744V417.405Z" fill="#E6E6E6"/>
<path d="M256.575 421.89H233.19V422.195H256.575V421.89Z" fill="#E6E6E6"/>
<path d="M378.508 428.69H325.877V428.994H378.508V428.69Z" fill="#E6E6E6"/>
<path d="M315.031 428.69H307.318V428.994H315.031V428.69Z" fill="#E6E6E6"/>
<path d="M552.45 421.89H438.292V422.195H552.45V421.89Z" fill="#E6E6E6"/>
<path d="M288.807 344.619H53.5085C51.6652 344.616 49.8985 343.881 48.5962 342.576C47.2939 341.272 46.5625 339.504 46.5625 337.661V6.8972C46.5786 5.06447 47.3171 3.31207 48.6176 2.02065C49.9182 0.729233 51.6757 0.0030938 53.5085 -4.57764e-05H288.807C290.653 -4.57764e-05 292.422 0.733046 293.727 2.03796C295.032 3.34287 295.765 5.11271 295.765 6.95813V337.661C295.765 339.506 295.032 341.276 293.727 342.581C292.422 343.886 290.653 344.619 288.807 344.619ZM53.5085 0.243674C51.746 0.246902 50.0568 0.949319 48.8116 2.19675C47.5665 3.44418 46.8672 5.13469 46.8672 6.8972V337.661C46.8672 339.423 47.5665 341.114 48.8116 342.361C50.0568 343.608 51.746 344.311 53.5085 344.314H288.807C290.571 344.311 292.261 343.609 293.508 342.362C294.755 341.115 295.457 339.424 295.461 337.661V6.8972C295.457 5.13357 294.755 3.44309 293.508 2.19601C292.261 0.948924 290.571 0.246896 288.807 0.243674H53.5085Z" fill="#E6E6E6"/>
<path d="M552.402 344.619H317.091C315.246 344.616 313.478 343.881 312.174 342.577C310.87 341.273 310.136 339.505 310.133 337.661V6.8972C310.152 5.06336 310.893 3.31097 312.196 2.01989C313.498 0.728807 315.257 0.00305956 317.091 -4.57764e-05H552.402C554.232 0.0062964 555.987 0.733852 557.285 2.02493C558.583 3.316 559.319 5.06657 559.335 6.8972V337.661C559.335 339.502 558.606 341.268 557.306 342.572C556.006 343.876 554.243 344.612 552.402 344.619ZM317.091 0.243674C315.327 0.246896 313.637 0.948924 312.39 2.19601C311.143 3.44309 310.44 5.13357 310.437 6.8972V337.661C310.44 339.424 311.143 341.115 312.39 342.362C313.637 343.609 315.327 344.311 317.091 344.314H552.402C554.165 344.311 555.856 343.609 557.103 342.362C558.35 341.115 559.052 339.424 559.055 337.661V6.8972C559.052 5.13357 558.35 3.44309 557.103 2.19601C555.856 0.948924 554.165 0.246896 552.402 0.243674H317.091Z" fill="#E6E6E6"/>
<path d="M325.852 294.876H299.056V401.174H325.852V294.876Z" fill="#E0E0E0"/>
<path d="M320.759 401.174H325.852V386.697H315.421L320.759 401.174Z" fill="#FAFAFA"/>
<path d="M208.429 294.876H181.632V401.174H208.429V294.876Z" fill="#E0E0E0"/>
<path d="M325.852 294.876H203.993V392.29H325.852V294.876Z" fill="#FAFAFA"/>
<path d="M321.429 299.665V325.438H208.38V299.665H321.392M321.868 299.189H207.941V325.901H321.904V299.189H321.868Z" fill="#E0E0E0"/>
<path d="M209.074 401.174H203.993V386.697H214.412L209.074 401.174Z" fill="#FAFAFA"/>
<path d="M262.23 312.545C262.23 313.078 262.388 313.599 262.683 314.042C262.979 314.484 263.4 314.83 263.892 315.033C264.384 315.237 264.926 315.291 265.448 315.187C265.971 315.083 266.45 314.826 266.827 314.45C267.204 314.073 267.46 313.593 267.564 313.071C267.668 312.548 267.615 312.007 267.411 311.515C267.207 311.023 266.862 310.602 266.419 310.306C265.976 310.01 265.455 309.852 264.923 309.852C264.208 309.852 263.523 310.136 263.018 310.641C262.513 311.146 262.23 311.831 262.23 312.545Z" fill="#E6E6E6"/>
<path d="M321.429 330.69V356.464H208.38V330.69H321.392M321.868 330.227H207.941V356.939H321.904V330.239L321.868 330.227Z" fill="#E0E0E0"/>
<path d="M262.23 343.644C262.23 344.177 262.388 344.697 262.683 345.14C262.979 345.583 263.4 345.928 263.892 346.132C264.384 346.336 264.926 346.389 265.448 346.285C265.971 346.181 266.45 345.925 266.827 345.548C267.204 345.172 267.46 344.692 267.564 344.169C267.668 343.647 267.615 343.105 267.411 342.613C267.207 342.121 266.862 341.701 266.419 341.405C265.976 341.109 265.455 340.951 264.923 340.951C264.208 340.951 263.523 341.235 263.018 341.74C262.513 342.245 262.23 342.93 262.23 343.644Z" fill="#E6E6E6"/>
<path d="M321.429 361.728V387.513H208.38V361.728H321.392M321.868 361.253H207.941V387.976H321.904V361.253H321.868Z" fill="#E0E0E0"/>
<path d="M262.23 374.621C262.232 375.153 262.392 375.672 262.689 376.114C262.987 376.555 263.408 376.898 263.901 377.1C264.393 377.302 264.934 377.354 265.456 377.248C265.977 377.143 266.456 376.886 266.831 376.508C267.207 376.131 267.462 375.651 267.565 375.129C267.668 374.607 267.614 374.066 267.41 373.575C267.205 373.084 266.86 372.664 266.418 372.368C265.975 372.073 265.455 371.915 264.923 371.915C264.568 371.915 264.217 371.985 263.889 372.122C263.562 372.258 263.264 372.457 263.014 372.708C262.764 372.96 262.566 373.258 262.431 373.586C262.297 373.914 262.228 374.266 262.23 374.621Z" fill="#E6E6E6"/>
<path d="M192.063 233.142H165.266V401.186H192.063V233.142Z" fill="#E0E0E0"/>
<path d="M186.969 401.174H192.063V386.697H181.644L186.969 401.174Z" fill="#FAFAFA"/>
<path d="M91.9187 233.142H65.1218V401.186H91.9187V233.142Z" fill="#E0E0E0"/>
<path d="M192.063 233.142H87.4708V392.302H192.063V233.142Z" fill="#FAFAFA"/>
<path d="M187.554 237.626V273.66H91.9796V237.626H187.554ZM188.115 237.078H91.3947V274.184H188.09V237.09L188.115 237.078Z" fill="#E0E0E0"/>
<path d="M187.554 278.059V373.634H142.027V278.059H187.554ZM188.115 277.499H141.479V374.194H188.115V277.499Z" fill="#E0E0E0"/>
<path d="M137.506 278.059V373.634H91.9796V278.059H137.506ZM138.055 277.499H91.3947V374.194H138.03V277.499H138.055Z" fill="#E0E0E0"/>
<path d="M92.5645 401.174H87.4708V386.697H97.9019L92.5645 401.174Z" fill="#FAFAFA"/>
<path d="M137.068 255.661C137.065 256.197 137.222 256.721 137.518 257.168C137.813 257.614 138.235 257.963 138.729 258.169C139.223 258.376 139.768 258.431 140.293 258.328C140.819 258.225 141.302 257.969 141.682 257.591C142.061 257.213 142.32 256.731 142.425 256.206C142.531 255.681 142.478 255.136 142.273 254.641C142.069 254.146 141.722 253.723 141.277 253.425C140.832 253.127 140.309 252.968 139.773 252.968C139.058 252.968 138.371 253.252 137.864 253.756C137.357 254.261 137.071 254.946 137.068 255.661Z" fill="#E6E6E6"/>
<path d="M146.719 323.574C146.719 324.109 146.878 324.633 147.176 325.078C147.474 325.523 147.897 325.87 148.392 326.074C148.887 326.278 149.431 326.331 149.957 326.226C150.482 326.121 150.964 325.862 151.341 325.482C151.719 325.103 151.976 324.619 152.079 324.094C152.182 323.568 152.127 323.024 151.92 322.53C151.713 322.036 151.365 321.614 150.918 321.318C150.472 321.023 149.948 320.866 149.412 320.868C149.057 320.868 148.706 320.938 148.379 321.074C148.051 321.211 147.754 321.41 147.503 321.661C147.253 321.913 147.055 322.211 146.92 322.539C146.786 322.867 146.717 323.219 146.719 323.574Z" fill="#E6E6E6"/>
<path d="M127.428 323.574C127.431 324.106 127.591 324.625 127.888 325.067C128.186 325.508 128.607 325.851 129.099 326.053C129.592 326.255 130.133 326.307 130.654 326.201C131.176 326.096 131.655 325.839 132.03 325.461C132.406 325.084 132.661 324.605 132.764 324.082C132.867 323.56 132.813 323.019 132.609 322.528C132.404 322.037 132.059 321.617 131.617 321.321C131.174 321.026 130.654 320.868 130.122 320.868C129.767 320.868 129.416 320.938 129.088 321.075C128.761 321.211 128.463 321.41 128.213 321.661C127.963 321.913 127.765 322.211 127.63 322.539C127.495 322.868 127.427 323.219 127.428 323.574Z" fill="#E6E6E6"/>
<path d="M124.382 186.287H113.086C114.127 191.766 114.782 197.312 115.048 202.884C115.048 208.977 106.444 233.142 118.703 233.142C130.962 233.142 122.359 209.038 122.359 202.884C122.645 197.311 123.321 191.765 124.382 186.287Z" fill="#E0E0E0"/>
<path d="M81.4022 211V218.311C81.415 222.231 82.9778 225.986 85.7494 228.758C88.521 231.529 92.2763 233.092 96.1959 233.105H103.508C107.427 233.092 111.182 231.529 113.954 228.758C116.726 225.986 118.288 222.231 118.301 218.311V211H81.4022Z" fill="#F5F5F5"/>
<path d="M238.443 279.375C238.443 287.905 247.984 294.876 259.646 294.876H270.175C281.837 294.876 291.378 287.905 291.378 279.375H238.443Z" fill="#E0E0E0"/>
<path d="M517.428 266.872C511.042 272.088 502.22 281.63 494.153 295.059C488.767 304.003 485.525 313.337 484.099 325.743C484.099 311.729 484.185 296.679 484.233 282.47C485.854 278.815 489.559 270.382 492.215 263.728C501.074 241.513 504.401 236.042 512.359 216.886C522.997 191.295 533.891 161.001 530.772 163.426C524.41 168.361 500.039 213.998 497.406 220.529C490.232 237.96 485.796 256.396 484.258 275.183C484.258 261.779 484.355 249.593 484.404 240.136C484.575 209.294 485.099 199.338 485.354 196.267C486.342 194.707 487.499 192.891 488.182 191.917C493.909 183.63 496.115 176.587 501.501 164.23C509.154 146.743 515.734 115.681 513.809 117.241C505.79 123.773 499.478 137.787 491.167 155.663C482.856 173.54 485.233 183.813 483.588 199.07C483.246 202.067 482.978 213.376 482.783 229.035C480.639 212.34 476.593 201.349 469.22 191.356C460.154 179.06 451.38 170.762 444.946 166.424C438.512 162.085 456.059 192.282 464.443 205.419C471.913 217.166 478.798 227.512 482.722 237.711C482.515 258.952 482.418 285.834 482.418 310.827C480.492 299.445 477.348 287.174 473.156 277.681C468.111 266.275 460.361 248.776 454.183 242.842C452.708 241.416 460.641 275.451 465.735 284.493C470.829 293.535 474.57 302.078 477.775 307.208C478.518 308.427 481.004 313.021 482.418 315.677C482.418 346.227 482.588 373.183 482.856 382.359H484.172C484.087 379.995 484.063 364.445 484.099 343.875C487.28 332.713 494.543 319.967 500.538 308.341C507.07 295.753 523.813 261.693 517.428 266.872Z" fill="#E0E0E0"/>
<path d="M502.598 401.174H464.407L461.519 363.738H505.486L502.598 401.174Z" fill="#F0F0F0"/>
<path d="M508.325 368.101H458.667L457.254 355.464H509.751L508.325 368.101Z" fill="#F5F5F5"/>
<path d="M151.423 24.9812H83.1204V99.9857H151.423V24.9812Z" fill="#E0E0E0"/>
<path d="M158.82 24.9812H88.2629V99.9857H158.82V24.9812Z" fill="#F5F5F5"/>
<path d="M152.909 94.0755V30.8914L94.173 30.8914V94.0755H152.909Z" fill="white"/>
<path d="M138.664 78.7456V46.1969H108.406V78.7456H138.664Z" fill="#F5F5F5"/>
<path d="M499.685 33.7185H436.233V103.398H499.685V33.7185Z" fill="#E0E0E0"/>
<path d="M506.558 33.7185H441.022V103.398H506.558V33.7185Z" fill="#F5F5F5"/>
<path d="M501.074 97.9019V39.2144H446.518V97.9019H501.074Z" fill="white"/>
<path d="M473.79 85.5819C483.192 85.5819 490.814 77.9601 490.814 68.5582C490.814 59.1562 483.192 51.5344 473.79 51.5344C464.388 51.5344 456.766 59.1562 456.766 68.5582C456.766 77.9601 464.388 85.5819 473.79 85.5819Z" fill="#F5F5F5"/>
<path d="M222.381 69.7036H171.712V125.345H222.381V69.7036Z" fill="#E0E0E0"/>
<path d="M227.865 69.7036H175.527V125.345H227.865V69.7036Z" fill="#F5F5F5"/>
<path d="M223.478 120.958V74.0906H179.913V120.958H223.478Z" fill="white"/>
<path d="M201.702 85.6672L189.784 106.31H213.62L201.702 85.6672Z" fill="#F5F5F5"/>
<path d="M304.649 454C435.139 454 540.922 447.824 540.922 440.205C540.922 432.587 435.139 426.411 304.649 426.411C174.159 426.411 68.3754 432.587 68.3754 440.205C68.3754 447.824 174.159 454 304.649 454Z" fill="#F5F5F5"/>
<path d="M425.594 132.132L413.506 127.258C413.506 127.258 397.554 156.346 392.985 157.82C386.77 159.819 373.902 165.376 366.273 166.35C365.237 167.569 363.543 171.359 363.702 172.736C373.95 176.16 396.47 171.615 401.296 168.032C412.275 159.904 425.594 132.132 425.594 132.132Z" fill="#E58A7B"/>
<path d="M429.311 125.515C431.566 133.838 419.355 150.582 419.355 150.582L403.355 141.613C403.355 141.613 406.353 134.728 410.009 127.721C415.87 116.4 426.74 116.023 429.311 125.515Z" fill="#407BFF"/>
<path opacity="0.2" d="M429.311 125.515C431.566 133.838 419.355 150.582 419.355 150.582L403.355 141.613C403.355 141.613 406.353 134.728 410.009 127.721C415.87 116.4 426.74 116.023 429.311 125.515Z" fill="black"/>
<path opacity="0.2" d="M409.704 145.196L416.004 148.73L417.113 129.39C413.445 132.205 410.862 140.687 409.704 145.196Z" fill="black"/>
<path d="M418.782 119.252C418.782 119.252 406.328 146.963 413.591 198.558H462.664C463.444 191.027 460.861 154.274 470.207 118.789C464.824 117.737 459.377 117.041 453.902 116.705C446.958 116.302 439.996 116.302 433.052 116.705C428.238 117.194 423.468 118.045 418.782 119.252Z" fill="#407BFF"/>
<path opacity="0.2" d="M418.782 119.252C418.782 119.252 406.328 146.963 413.591 198.558H462.664C463.444 191.027 460.861 154.274 470.207 118.789C464.824 117.737 459.377 117.041 453.902 116.705C446.958 116.302 439.996 116.302 433.052 116.705C428.238 117.194 423.468 118.045 418.782 119.252Z" fill="black"/>
<g style="mix-blend-mode:multiply">
<path d="M407.401 441.302C407.328 442.618 425.936 443.678 448.955 443.678C471.974 443.678 490.716 442.618 490.789 441.302C490.862 439.986 472.267 438.938 449.235 438.938C426.204 438.938 407.486 439.998 407.401 441.302Z" fill="#E8ECF1"/>
</g>
<path d="M440.157 406.722L431.454 410.091L438.951 429.459L447.655 426.09L440.157 406.722Z" fill="#E58A7B"/>
<path d="M478.969 431.931H469.793L466.43 410.691H475.606L478.969 431.931Z" fill="#E58A7B"/>
<path d="M469.159 430.871H479.469C479.647 430.872 479.82 430.936 479.956 431.052C480.092 431.168 480.183 431.328 480.212 431.505L481.54 439.657C481.568 439.862 481.552 440.07 481.492 440.267C481.433 440.465 481.331 440.647 481.195 440.802C481.058 440.957 480.89 441.081 480.702 441.165C480.513 441.249 480.309 441.292 480.102 441.29C476.507 441.229 474.777 441.01 470.244 441.01C467.453 441.01 461.714 441.302 457.838 441.302C453.963 441.302 453.707 437.5 455.304 437.147C462.469 435.599 465.248 433.491 467.636 431.444C468.057 431.074 468.599 430.87 469.159 430.871Z" fill="#263238"/>
<path d="M438.694 427.727L448.443 424.875C448.617 424.826 448.803 424.838 448.969 424.909C449.135 424.98 449.272 425.106 449.357 425.265L453.013 432.577C453.098 432.763 453.141 432.964 453.14 433.168C453.139 433.372 453.093 433.574 453.006 433.758C452.919 433.943 452.793 434.106 452.636 434.237C452.479 434.367 452.296 434.462 452.099 434.515C448.553 435.489 446.177 436.087 441.741 437.378C438.682 438.268 435.563 439.718 432.54 440.681C430.444 441.351 425.521 441.375 422.974 441.375C419.209 441.375 418.368 437.403 419.989 437.22C424.071 436.769 424.62 436.976 426.874 435.843C430.563 434.23 433.906 431.922 436.72 429.043C437.251 428.438 437.932 427.984 438.694 427.727Z" fill="#263238"/>
<path d="M367.809 166.302L357.719 162.073L353.563 173.26C357.699 173.89 361.906 173.89 366.042 173.26L367.809 166.302Z" fill="#E58A7B"/>
<path d="M350.212 161.781L349.944 169.214L353.563 173.236L357.719 162.049L350.212 161.781Z" fill="#E58A7B"/>
<path d="M441.351 408.367L432.621 411.737L436.487 421.753L445.218 418.382L441.351 408.367Z" fill="#CF6F64"/>
<path d="M475.606 410.691H466.43L468.172 421.646H477.348L475.606 410.691Z" fill="#CF6F64"/>
<path opacity="0.2" d="M412.031 184.605C412.214 186.811 412.421 189.065 412.69 191.38L449.174 179.536C454.872 177.847 459.824 174.266 463.213 169.385C463.359 166.131 463.542 162.707 463.822 159.136C463.944 157.406 464.09 155.627 464.248 153.823C464.407 152.02 464.626 150.021 464.858 148.096L412.031 184.605Z" fill="black"/>
<path d="M423.949 144.635L422.731 144.489C423.45 138.396 427.995 133.595 432.784 133.716V134.935C428.592 134.85 424.595 139.176 423.949 144.635Z" fill="white"/>
<path d="M430.444 155.883H430.237V154.664C434.429 154.823 438.365 150.448 439.011 145.001L440.23 145.147C439.584 151.106 435.185 155.883 430.444 155.883Z" fill="white"/>
<path d="M453.22 93.2226C451.502 99.937 449.479 112.233 453.902 116.705C453.902 116.705 450.807 123.517 438.341 123.517C426.947 123.517 433.052 116.705 433.052 116.705C440.632 114.926 440.766 109.393 439.767 104.153L453.22 93.2226Z" fill="#E58A7B"/>
<path d="M447.736 97.6826L439.779 104.153C440.026 105.357 440.168 106.581 440.205 107.809C442.533 110.124 447.2 104.263 447.675 101.265C447.917 100.085 447.938 98.8703 447.736 97.6826Z" fill="#CF6F64"/>
<path d="M426.094 93.1372C426.648 94.0969 427.393 94.9321 428.285 95.5905C429.176 96.2489 430.193 96.7163 431.273 96.9636C434.198 97.6095 435.66 94.9164 434.856 92.2111C434.137 89.7739 431.736 86.4959 428.763 87.0565C428.126 87.1877 427.53 87.4696 427.024 87.8785C426.519 88.2875 426.118 88.8117 425.857 89.4072C425.596 90.0026 425.481 90.652 425.522 91.301C425.563 91.95 425.759 92.5796 426.094 93.1372Z" fill="#CF6F64"/>
<path d="M430.932 71.6534C426.374 73.7372 424.766 91.8456 430.493 94.5265C436.221 97.2074 439.56 67.693 430.932 71.6534Z" fill="#263238"/>
<path d="M454.609 83.1204C453.512 92.2111 453.391 97.5607 448.516 102.216C447.006 103.761 445.098 104.858 443.003 105.387C440.908 105.915 438.708 105.855 436.645 105.212C434.583 104.569 432.738 103.368 431.315 101.743C429.891 100.117 428.945 98.1304 428.58 96.0009C427.105 87.8363 429.141 74.3465 438.256 70.7273C440.171 69.8825 442.277 69.5654 444.356 69.8088C446.435 70.0522 448.411 70.8472 450.079 72.1114C451.748 73.3757 453.047 75.0632 453.844 76.9989C454.64 78.9346 454.905 81.0481 454.609 83.1204Z" fill="#E58A7B"/>
<path d="M439.633 76.3572C446.384 74.639 451.343 73.4691 449.564 79.0869C447.212 86.5934 444.385 93.8562 448.175 94.1852C450.49 94.3924 460.727 90.0542 459.423 85.6551C458.289 81.8287 463.078 80.7807 463.932 78.8431C467.088 71.824 458.058 72.7502 459.666 68.4851C461.275 64.22 452.355 57.3471 447.48 60.7714C439.547 66.3038 425.936 66.2185 433.089 57.1156C438.219 50.6205 429.067 51.9487 429.067 51.9487C429.067 51.9487 434.6 55.2268 425.29 60.2961C415.444 65.7067 424.473 80.2445 439.633 76.3572Z" fill="#263238"/>
<path d="M458.192 93.1372C456.859 95.0657 454.857 96.4296 452.574 96.9636C449.564 97.6095 448.407 94.9164 449.54 92.2111C450.551 89.7739 453.33 86.4959 456.206 87.0565C459.081 87.617 459.74 90.7488 458.192 93.1372Z" fill="#E58A7B"/>
<path d="M413.591 198.558C413.591 198.558 405.354 272.283 404.708 300.262C404.05 329.362 432.626 420.16 432.626 420.16L447.249 414.067C447.249 414.067 430.189 331.105 432.626 302.529C435.209 271.369 445.884 198.607 445.884 198.607L413.591 198.558Z" fill="#407BFF"/>
<path opacity="0.2" d="M434.064 218.799C427.495 232.423 431.919 259.366 435.477 275.329C436.83 264.057 438.438 251.823 439.962 240.502C439.815 223.1 438.463 209.659 434.064 218.799Z" fill="black"/>
<path d="M446.603 409.241C446.676 409.241 448.333 413.896 448.333 413.896L431.468 420.988L428.812 416.041L446.603 409.241Z" fill="#407BFF"/>
<path d="M431.005 198.558C431.005 198.558 437.305 268.676 441.473 294.937C446.055 323.708 464.017 419.526 464.017 419.526H480.821C480.821 419.526 470.756 326.035 468.855 297.544C466.783 266.641 462.664 198.558 462.664 198.558H431.005Z" fill="#407BFF"/>
<path d="M481.077 415.151C481.15 415.151 481.638 419.843 481.638 419.843H463.164L461.848 414.457L481.077 415.151Z" fill="#407BFF"/>
<path opacity="0.2" d="M474.643 409.594C474.605 409.595 474.568 409.581 474.539 409.557C474.51 409.532 474.49 409.498 474.484 409.46C474.387 408.607 465.308 324.159 463.602 298.568C461.75 270.808 458.021 209.233 457.985 208.611C457.983 208.591 457.986 208.571 457.992 208.552C457.999 208.532 458.009 208.515 458.023 208.5C458.037 208.485 458.053 208.473 458.072 208.465C458.091 208.457 458.111 208.453 458.131 208.453C458.171 208.453 458.21 208.468 458.239 208.495C458.268 208.522 458.286 208.559 458.289 208.599C458.289 209.221 462.055 270.748 463.907 298.556C465.613 324.146 474.692 408.534 474.777 409.448C474.78 409.468 474.78 409.489 474.775 409.509C474.77 409.529 474.76 409.547 474.748 409.563C474.735 409.579 474.719 409.592 474.701 409.602C474.683 409.612 474.663 409.617 474.643 409.619V409.594Z" fill="black"/>
<path d="M440.668 85.6551C440.668 86.3985 440.205 86.9956 439.718 86.9956C439.231 86.9956 438.877 86.3985 438.926 85.6551C438.975 84.9118 439.389 84.3147 439.876 84.3147C440.364 84.3147 440.717 84.924 440.668 85.6551Z" fill="#263238"/>
<path d="M432.309 85.6551C432.309 86.3985 431.834 86.9956 431.358 86.9956C430.883 86.9956 430.518 86.3985 430.554 85.6551C430.591 84.9118 431.029 84.3147 431.517 84.3147C432.004 84.3147 432.358 84.924 432.309 85.6551Z" fill="#263238"/>
<path d="M434.941 86.0328C433.924 88.3027 432.613 90.4291 431.042 92.3573C432.26 93.5759 434.539 93.0154 434.539 93.0154L434.941 86.0328Z" fill="#DF5753"/>
<path d="M435.16 96.1228C435.132 96.1229 435.104 96.1172 435.078 96.106C435.052 96.0948 435.029 96.0785 435.009 96.0579C434.99 96.0374 434.975 96.0131 434.965 95.9865C434.956 95.9599 434.952 95.9317 434.953 95.9035C434.956 95.8442 434.982 95.7884 435.025 95.7476C435.068 95.7068 435.125 95.6841 435.185 95.6841C436.117 95.6906 437.038 95.4882 437.882 95.0917C438.725 94.6953 439.469 94.1149 440.059 93.3932C440.101 93.3563 440.155 93.336 440.211 93.336C440.268 93.336 440.322 93.3563 440.364 93.3932C440.403 93.4341 440.425 93.4887 440.425 93.5455C440.425 93.6023 440.403 93.6569 440.364 93.6978C439.733 94.4648 438.938 95.0808 438.037 95.5004C437.137 95.92 436.154 96.1327 435.16 96.1228Z" fill="#263238"/>
<path d="M442.155 83.4129C442.097 83.4428 442.032 83.4584 441.966 83.4584C441.901 83.4584 441.836 83.4428 441.777 83.4129C441.322 83.1182 440.803 82.9348 440.263 82.8777C439.723 82.8205 439.177 82.8911 438.67 83.0838C438.621 83.1086 438.567 83.1232 438.511 83.1267C438.456 83.1303 438.401 83.1228 438.349 83.1046C438.296 83.0864 438.248 83.058 438.207 83.0209C438.166 82.9839 438.133 82.939 438.109 82.8889C438.064 82.7804 438.063 82.6586 438.106 82.5493C438.15 82.4401 438.234 82.352 438.341 82.3039C438.978 82.0437 439.669 81.9411 440.354 82.0047C441.039 82.0684 441.699 82.2964 442.277 82.6695C442.324 82.7013 442.364 82.742 442.395 82.7893C442.425 82.8366 442.447 82.8896 442.457 82.9451C442.467 83.0007 442.466 83.0577 442.454 83.1129C442.442 83.1681 442.419 83.2203 442.387 83.2666C442.325 83.3365 442.245 83.3872 442.155 83.4129Z" fill="#263238"/>
<path d="M429.08 80.9757C429.015 80.96 428.955 80.9262 428.909 80.8782C428.868 80.8385 428.836 80.7911 428.814 80.7388C428.792 80.6865 428.781 80.6303 428.781 80.5736C428.781 80.5168 428.792 80.4606 428.814 80.4083C428.836 80.356 428.868 80.3086 428.909 80.2689C429.376 79.7451 429.958 79.3362 430.609 79.0741C431.26 78.812 431.962 78.7037 432.662 78.7579C432.718 78.7665 432.772 78.7866 432.82 78.8168C432.868 78.8471 432.909 78.8868 432.941 78.9337C432.973 78.9805 432.995 79.0334 433.006 79.0891C433.017 79.1448 433.016 79.2021 433.003 79.2575C432.977 79.3703 432.911 79.4697 432.817 79.537C432.722 79.6044 432.607 79.6349 432.492 79.6231C431.938 79.5882 431.384 79.6798 430.87 79.8909C430.357 80.102 429.899 80.4272 429.53 80.8416C429.475 80.9033 429.403 80.9485 429.324 80.9721C429.244 80.9958 429.16 80.997 429.08 80.9757Z" fill="#263238"/>
<path d="M474.923 130.78L462.25 127.404C462.25 127.404 449.82 158.003 445.421 159.989C439.45 162.719 424.327 172.175 417.893 176.648C417.539 178.171 417.82 182.204 418.624 183.313C429.591 181.315 450.588 173.236 454.975 169.129C464.979 159.758 474.923 130.78 474.923 130.78Z" fill="#E58A7B"/>
<path d="M466.076 432.48C465.458 432.528 464.842 432.36 464.334 432.004C464.177 431.863 464.059 431.682 463.993 431.482C463.927 431.281 463.914 431.066 463.956 430.859C463.963 430.729 464.006 430.604 464.079 430.497C464.152 430.39 464.253 430.304 464.37 430.25C465.394 429.726 468.257 431.541 468.586 431.748C468.623 431.771 468.651 431.804 468.666 431.844C468.681 431.883 468.683 431.927 468.672 431.968C468.661 432.01 468.64 432.049 468.61 432.081C468.58 432.113 468.543 432.137 468.501 432.151C467.707 432.346 466.894 432.456 466.076 432.48ZM464.858 430.579C464.765 430.558 464.67 430.558 464.577 430.579C464.531 430.602 464.492 430.639 464.466 430.685C464.44 430.73 464.428 430.782 464.431 430.834C464.399 430.976 464.404 431.124 464.447 431.263C464.49 431.402 464.568 431.528 464.675 431.627C465.15 432.053 466.344 432.102 467.916 431.797C466.98 431.181 465.926 430.766 464.821 430.579H464.858Z" fill="#407BFF"/>
<path d="M468.44 432.151C468.409 432.161 468.374 432.161 468.343 432.151C467.429 431.639 465.711 429.628 465.967 428.604C466.005 428.442 466.096 428.297 466.227 428.194C466.357 428.09 466.519 428.033 466.686 428.032C466.849 428.01 467.015 428.024 467.173 428.072C467.331 428.12 467.476 428.202 467.599 428.312C468.611 429.177 468.672 431.834 468.672 431.968C468.678 432.008 468.67 432.049 468.65 432.084C468.63 432.119 468.599 432.147 468.562 432.163C468.521 432.171 468.479 432.167 468.44 432.151ZM466.807 428.434H466.722C466.442 428.434 466.405 428.592 466.393 428.653C466.247 429.25 467.331 430.774 468.233 431.492C468.229 430.463 467.91 429.46 467.319 428.617C467.178 428.493 466.995 428.428 466.807 428.434Z" fill="#407BFF"/>
<path d="M433.723 430.956C432.977 431.216 432.165 431.216 431.419 430.956C431.25 430.865 431.107 430.732 431.002 430.57C430.898 430.408 430.836 430.222 430.822 430.03C430.807 429.91 430.822 429.787 430.867 429.674C430.912 429.561 430.984 429.462 431.078 429.384C432.053 428.507 436.038 429.384 436.489 429.555C436.532 429.566 436.569 429.591 436.596 429.627C436.623 429.662 436.636 429.706 436.635 429.75C436.637 429.796 436.625 429.841 436.601 429.88C436.577 429.919 436.542 429.95 436.501 429.969C435.604 430.374 434.674 430.705 433.723 430.956ZM431.736 429.506C431.597 429.534 431.467 429.597 431.358 429.689C431.32 429.718 431.29 429.758 431.273 429.803C431.255 429.848 431.251 429.897 431.261 429.945C431.269 430.073 431.309 430.197 431.377 430.305C431.445 430.414 431.539 430.504 431.651 430.566C432.297 430.908 433.796 430.64 435.733 429.823C434.428 429.494 433.077 429.387 431.736 429.506Z" fill="#407BFF"/>
<path d="M436.464 429.969H436.367C435.148 429.75 432.711 428.349 432.638 427.301C432.638 427.057 432.748 426.716 433.332 426.521C433.53 426.45 433.74 426.421 433.949 426.433C434.159 426.446 434.363 426.5 434.551 426.594C435.867 427.24 436.562 429.579 436.598 429.689C436.607 429.726 436.606 429.764 436.595 429.801C436.584 429.837 436.565 429.87 436.537 429.896C436.519 429.926 436.494 429.951 436.464 429.969ZM433.576 426.886H433.454C433.077 427.02 433.077 427.179 433.077 427.228C433.077 427.861 434.844 429.019 436.074 429.409C435.791 428.43 435.191 427.573 434.368 426.972C434.124 426.847 433.842 426.817 433.576 426.886Z" fill="#407BFF"/>
<path d="M418.929 175.929L406.219 181.778L404.744 185.434L409.436 188.59C409.436 188.59 418.21 187.639 420.708 181.997L418.929 175.929Z" fill="#E58A7B"/>
<path d="M419.465 183.52C419.181 181.078 418.375 178.726 417.101 176.623L419.112 175.112C420.624 177.535 421.589 180.259 421.939 183.094L419.465 183.52Z" fill="#263238"/>
<path d="M421.634 177.659C421.903 178.082 422.035 178.577 422.012 179.077C421.989 179.577 421.813 180.059 421.507 180.455C421.201 180.852 420.781 181.144 420.303 181.293C419.825 181.443 419.312 181.441 418.835 181.288C418.358 181.136 417.94 180.84 417.637 180.441C417.334 180.042 417.161 179.56 417.142 179.06C417.123 178.559 417.258 178.065 417.53 177.644C417.802 177.224 418.197 176.897 418.661 176.709C419.181 176.443 419.786 176.394 420.343 176.572C420.9 176.75 421.364 177.141 421.634 177.659Z" fill="#263238"/>
<path d="M397.628 186.506L399.322 188.212L410.728 183.338L406.219 181.778L397.628 186.506Z" fill="#E58A7B"/>
<path opacity="0.2" d="M446.603 409.241C446.676 409.241 448.333 413.896 448.333 413.896L431.468 420.988L428.812 416.041L446.603 409.241Z" fill="black"/>
<path opacity="0.2" d="M481.077 415.151C481.15 415.151 481.638 419.843 481.638 419.843H463.164L461.848 414.457L481.077 415.151Z" fill="black"/>
<path d="M478.226 127.27C481.577 138.079 468.477 152.861 468.477 152.861L450.381 145.476C452.526 139.228 454.999 133.099 457.79 127.112C463.347 115.133 474.838 116.364 478.226 127.27Z" fill="#407BFF"/>
<path opacity="0.2" d="M478.226 127.27C481.577 138.079 468.477 152.861 468.477 152.861L450.381 145.476C452.526 139.228 454.999 133.099 457.79 127.112C463.347 115.133 474.838 116.364 478.226 127.27Z" fill="black"/>
<path d="M298.41 18.9736H290.623V20.2287H298.41V18.9736Z" fill="#407BFF"/>
<path d="M399.21 68.6514L398.267 89.5657L399.521 89.6222L400.463 68.7079L399.21 68.6514Z" fill="#407BFF"/>
<path d="M396.787 24.6035H252.993L239.612 324.037H383.407L396.787 24.6035Z" fill="#407BFF"/>
<path opacity="0.56" d="M392.497 28.7223H248.703L235.323 328.156H379.117L392.497 28.7223Z" fill="#FAFAFA"/>
<path opacity="0.07" d="M388.208 32.829H244.414L231.021 332.262H374.816L388.208 32.829Z" fill="#407BFF"/>
<path d="M371.842 163.426H249.105L248.082 186.335H370.819L371.842 163.426Z" fill="white"/>
<path d="M316.603 146.707H249.849L249.398 156.955H316.152L316.603 146.707Z" fill="#407BFF"/>
<path d="M369.076 225.257H246.339L245.315 248.167H368.052L369.076 225.257Z" fill="white"/>
<path opacity="0.47" d="M346.569 279.107H264.033L262.802 306.562H345.338L346.569 279.107Z" fill="#407BFF"/>
<path d="M341.048 310.827H258.513C258.477 310.836 258.439 310.836 258.403 310.827C258.391 310.792 258.391 310.753 258.403 310.718L259.622 283.25C259.622 283.232 259.626 283.213 259.633 283.196C259.641 283.179 259.652 283.164 259.665 283.151C259.679 283.138 259.695 283.129 259.713 283.123C259.731 283.117 259.749 283.115 259.768 283.116H342.304C342.319 283.109 342.335 283.105 342.352 283.105C342.369 283.105 342.386 283.109 342.401 283.116C342.41 283.131 342.414 283.148 342.414 283.165C342.414 283.182 342.41 283.199 342.401 283.214L341.207 310.742C341.192 310.77 341.169 310.794 341.141 310.809C341.113 310.824 341.08 310.831 341.048 310.827ZM258.659 310.535H340.902L342.121 283.36H259.878L258.659 310.535Z" fill="white"/>
<path d="M302.187 208.538H247.082L246.632 218.799H301.724L302.187 208.538Z" fill="#407BFF"/>
<path d="M344.996 89.4206C344.681 96.088 342.31 102.494 338.209 107.76C335.173 111.738 331.266 114.967 326.787 117.2C322.309 119.433 317.379 120.61 312.375 120.641C308.331 120.672 304.324 119.874 300.6 118.298C296.876 116.722 293.514 114.399 290.722 111.474C287.93 108.55 285.766 105.084 284.363 101.291C282.961 97.4983 282.35 93.4585 282.568 89.4206C282.996 81.0415 286.61 73.1427 292.669 67.3394C298.728 61.5362 306.776 58.2669 315.165 58.2002C319.212 58.1624 323.224 58.9549 326.952 60.5287C330.68 62.1024 334.046 64.424 336.842 67.35C339.638 70.2759 341.804 73.7441 343.207 77.5402C344.609 81.3363 345.218 85.3797 344.996 89.4206Z" fill="white"/>
<path d="M347.933 64.7318C347.854 66.5047 347.223 68.2086 346.13 69.6062C345.321 70.6627 344.281 71.5204 343.09 72.1138C341.899 72.7073 340.588 73.0208 339.257 73.0305C337.968 73.0383 336.696 72.7303 335.553 72.1334C334.41 71.5365 333.431 70.6689 332.701 69.6062C331.734 68.1703 331.255 66.4611 331.336 64.7318C331.454 62.5072 332.416 60.4112 334.026 58.8715C335.636 57.3317 337.773 56.464 340 56.4454C341.075 56.4356 342.14 56.6459 343.131 57.0635C344.121 57.4811 345.015 58.097 345.759 58.8733C346.502 59.6497 347.078 60.57 347.452 61.5775C347.826 62.5851 347.99 63.6586 347.933 64.7318Z" fill="#407BFF"/>
<path d="M262.327 174.881C262.269 175.863 261.84 176.786 261.128 177.464C260.415 178.143 259.472 178.526 258.488 178.536C258.014 178.542 257.542 178.45 257.104 178.267C256.666 178.083 256.271 177.812 255.942 177.469C255.613 177.126 255.358 176.72 255.192 176.275C255.026 175.829 254.954 175.355 254.979 174.881C255.032 173.897 255.459 172.97 256.172 172.291C256.886 171.611 257.832 171.23 258.818 171.225C259.292 171.221 259.762 171.314 260.199 171.498C260.637 171.683 261.032 171.954 261.36 172.296C261.689 172.639 261.944 173.044 262.11 173.489C262.277 173.933 262.35 174.407 262.327 174.881Z" fill="#263238"/>
<path d="M278.754 174.881C278.698 175.864 278.27 176.789 277.557 177.468C276.844 178.147 275.9 178.529 274.915 178.537C274.441 178.54 273.972 178.447 273.535 178.263C273.098 178.079 272.704 177.807 272.376 177.464C272.049 177.122 271.795 176.716 271.63 176.272C271.465 175.827 271.393 175.354 271.418 174.881C271.471 173.899 271.896 172.974 272.607 172.295C273.318 171.615 274.261 171.233 275.244 171.225C275.719 171.219 276.19 171.311 276.628 171.495C277.066 171.678 277.462 171.95 277.791 172.293C278.12 172.635 278.375 173.042 278.541 173.487C278.706 173.932 278.779 174.406 278.754 174.881Z" fill="#263238"/>
<path d="M295.193 174.881C295.137 175.864 294.709 176.789 293.996 177.468C293.283 178.147 292.338 178.529 291.354 178.537C290.879 178.54 290.409 178.447 289.972 178.263C289.535 178.079 289.14 177.807 288.811 177.465C288.483 177.123 288.227 176.717 288.061 176.273C287.895 175.828 287.821 175.355 287.844 174.881C287.9 173.898 288.328 172.973 289.041 172.294C289.754 171.615 290.698 171.233 291.683 171.225C292.158 171.219 292.629 171.311 293.067 171.495C293.505 171.678 293.901 171.95 294.23 172.293C294.559 172.635 294.814 173.042 294.979 173.487C295.145 173.932 295.218 174.406 295.193 174.881Z" fill="#263238"/>
<path d="M259.561 236.712C259.502 237.694 259.074 238.617 258.361 239.296C257.649 239.974 256.706 240.357 255.722 240.368C255.248 240.372 254.778 240.279 254.34 240.095C253.903 239.91 253.508 239.639 253.18 239.296C252.851 238.954 252.596 238.548 252.43 238.104C252.263 237.66 252.19 237.186 252.213 236.712C252.269 235.729 252.696 234.804 253.409 234.125C254.122 233.446 255.067 233.064 256.051 233.056C256.526 233.052 256.996 233.146 257.433 233.33C257.871 233.514 258.266 233.786 258.594 234.128C258.923 234.47 259.178 234.876 259.344 235.32C259.51 235.765 259.584 236.238 259.561 236.712Z" fill="#263238"/>
<path d="M275.988 236.712C275.932 237.693 275.506 238.616 274.796 239.295C274.085 239.974 273.144 240.357 272.161 240.368C271.686 240.374 271.215 240.282 270.777 240.098C270.339 239.915 269.943 239.643 269.614 239.3C269.285 238.958 269.03 238.551 268.865 238.106C268.699 237.661 268.627 237.186 268.652 236.712C268.707 235.729 269.135 234.804 269.848 234.125C270.561 233.446 271.506 233.064 272.49 233.056C272.964 233.052 273.434 233.145 273.87 233.33C274.307 233.514 274.701 233.786 275.029 234.128C275.357 234.471 275.611 234.877 275.775 235.321C275.94 235.766 276.013 236.239 275.988 236.712Z" fill="#263238"/>
<path d="M292.463 236.712C292.407 237.695 291.979 238.62 291.267 239.299C290.554 239.978 289.609 240.36 288.624 240.368C288.15 240.37 287.681 240.276 287.245 240.091C286.808 239.906 286.414 239.635 286.086 239.293C285.757 238.951 285.502 238.546 285.335 238.102C285.168 237.659 285.093 237.186 285.115 236.712C285.173 235.73 285.602 234.807 286.314 234.129C287.027 233.45 287.97 233.067 288.953 233.057C289.428 233.051 289.899 233.143 290.337 233.326C290.775 233.51 291.171 233.781 291.5 234.124C291.829 234.467 292.084 234.873 292.25 235.318C292.415 235.764 292.488 236.238 292.463 236.712Z" fill="#263238"/>
<path d="M308.865 236.712C308.807 237.694 308.378 238.617 307.666 239.296C306.953 239.974 306.01 240.357 305.027 240.368C304.553 240.37 304.083 240.276 303.647 240.091C303.21 239.906 302.816 239.635 302.488 239.293C302.16 238.951 301.904 238.546 301.738 238.102C301.571 237.659 301.496 237.186 301.517 236.712C301.576 235.73 302.004 234.807 302.717 234.129C303.429 233.45 304.372 233.067 305.356 233.056C305.83 233.052 306.3 233.146 306.738 233.33C307.175 233.514 307.57 233.786 307.898 234.128C308.227 234.47 308.482 234.876 308.649 235.32C308.815 235.765 308.889 236.238 308.865 236.712Z" fill="#263238"/>
<path d="M325.365 236.712C325.307 237.694 324.878 238.617 324.166 239.296C323.453 239.974 322.51 240.357 321.526 240.368C321.052 240.374 320.58 240.282 320.142 240.098C319.704 239.915 319.309 239.643 318.98 239.3C318.651 238.958 318.396 238.551 318.23 238.106C318.064 237.661 317.992 237.186 318.017 236.712C318.073 235.729 318.5 234.804 319.213 234.125C319.926 233.446 320.871 233.064 321.855 233.056C322.33 233.052 322.8 233.146 323.237 233.33C323.675 233.514 324.07 233.786 324.398 234.128C324.727 234.47 324.982 234.876 325.148 235.32C325.315 235.765 325.388 236.238 325.365 236.712Z" fill="#263238"/>
<path d="M322.871 87.7946C327.972 82.8068 328.242 74.8119 323.476 69.9376C318.709 65.0633 310.71 65.1553 305.61 70.1431C300.509 75.1309 300.238 83.1257 305.005 88C309.772 92.8743 317.771 92.7823 322.871 87.7946Z" fill="#407BFF"/>
<path d="M338.209 107.76C335.173 111.738 331.266 114.967 326.787 117.2C322.309 119.433 317.379 120.61 312.375 120.641C307.522 120.682 302.735 119.529 298.433 117.282C294.132 115.036 290.449 111.766 287.71 107.76C293.633 101.862 303.004 98.0117 313.386 98.0117C323.769 98.0117 332.811 101.862 338.209 107.76Z" fill="#407BFF"/>
<path opacity="0.1" d="M322.871 87.7946C327.972 82.8068 328.242 74.8119 323.476 69.9376C318.709 65.0633 310.71 65.1553 305.61 70.1431C300.509 75.1309 300.238 83.1257 305.005 88C309.772 92.8743 317.771 92.7823 322.871 87.7946Z" fill="white"/>
<path opacity="0.1" d="M338.209 107.76C335.173 111.738 331.266 114.967 326.787 117.2C322.309 119.433 317.379 120.61 312.375 120.641C307.522 120.682 302.735 119.529 298.433 117.282C294.132 115.036 290.449 111.766 287.71 107.76C293.633 101.862 303.004 98.0117 313.386 98.0117C323.769 98.0117 332.811 101.862 338.209 107.76Z" fill="white"/>
<path d="M158.917 191.856C157.759 194.39 156.541 197.181 155.481 199.886C154.42 202.592 153.336 205.382 152.397 208.161C150.482 213.636 149.022 219.261 148.035 224.977L147.767 226.768C147.741 227.076 147.77 227.385 147.852 227.682C148.14 228.692 148.593 229.648 149.193 230.51C150.758 232.741 152.573 234.785 154.603 236.603C156.744 238.594 158.989 240.469 161.33 242.22C163.67 244.024 166.131 245.779 168.556 247.436L166.277 251.713C160.487 249.19 154.991 246.039 149.887 242.318C147.165 240.332 144.707 238.006 142.576 235.396C141.312 233.843 140.327 232.082 139.663 230.193C139.277 229.012 139.08 227.779 139.078 226.537C139.078 226.244 139.078 225.818 139.078 225.611V225.014L139.2 223.795C139.899 217.446 141.234 211.184 143.185 205.102C144.135 202.104 145.147 199.119 146.305 196.206C147.462 193.294 148.656 190.442 150.131 187.481L158.917 191.856Z" fill="#E58A7B"/>
<path d="M166.838 246.68L175.453 242.318L173.223 251.774C173.223 251.774 167.313 253.431 164.571 250.555L166.838 246.68Z" fill="#E58A7B"/>
<path d="M183.338 243.865L181.047 251.689L173.223 251.774L175.453 242.318L183.338 243.865Z" fill="#E58A7B"/>
<path d="M195.499 146.231C195.96 147.92 196.601 149.554 197.412 151.106C197.176 151.375 196.87 151.574 196.529 151.684C196.188 151.793 195.824 151.808 195.475 151.727L195.499 146.231Z" fill="#DF5753"/>
<path d="M195.243 146.305C195.748 146.305 196.157 145.677 196.157 144.903C196.157 144.129 195.748 143.502 195.243 143.502C194.739 143.502 194.329 144.129 194.329 144.903C194.329 145.677 194.739 146.305 195.243 146.305Z" fill="#263238"/>
<path d="M194.975 143.551L196.827 143.027C196.827 143.027 195.926 144.465 194.975 143.551Z" fill="#263238"/>
<path d="M171.7 155.176C172.809 160.842 173.918 171.237 169.945 175.027C169.945 175.027 171.505 180.779 182.046 180.779C193.635 180.779 187.578 175.027 187.578 175.027C181.254 173.516 181.412 168.824 182.521 164.413L171.7 155.176Z" fill="#E58A7B"/>
<path d="M168.617 142.259C169.202 151.727 169.251 155.749 174.028 160.611C181.229 167.922 192.733 165.144 194.987 155.737C197.022 147.206 195.731 133.168 186.457 129.403C184.422 128.564 182.206 128.259 180.019 128.515C177.833 128.772 175.748 129.582 173.962 130.869C172.176 132.156 170.747 133.878 169.812 135.871C168.877 137.864 168.466 140.063 168.617 142.259Z" fill="#E58A7B"/>
<path d="M169.555 131.608C164.803 133.339 158.466 132.047 160.952 146.707C163.584 162.232 159.539 167.338 159.539 167.338C159.539 167.338 177.562 171.176 195.962 167.106C195.962 167.106 190.345 157.284 191.917 150.046C193.927 140.906 192.343 137.531 192.343 137.531C192.343 137.531 176.233 129.171 169.555 131.608Z" fill="#263238"/>
<path d="M189.662 147.194C189.667 148.995 190.183 150.757 191.149 152.276C192.441 154.25 193.964 153.494 194.342 151.398C194.683 149.558 194.427 146.305 192.782 145.037C191.137 143.77 189.686 145.013 189.662 147.194Z" fill="#E58A7B"/>
<path d="M165.424 133.205C164.059 129.366 170.567 123.456 184.337 125.893C198.107 128.33 198.704 139.797 198.704 139.797L195.926 136.483L196.048 139.968L181.9 142.685L165.424 133.205Z" fill="#263238"/>
<path d="M166.594 175.673C166.513 175.116 166.652 174.55 166.982 174.095C167.312 173.64 167.807 173.331 168.361 173.236C172.651 172.529 182.399 171.091 187.298 171.773C190.954 172.285 191.904 174.405 192.063 176.148C192.088 176.453 192.047 176.76 191.943 177.048C191.839 177.336 191.675 177.599 191.462 177.818C191.248 178.037 190.99 178.208 190.705 178.32C190.42 178.431 190.114 178.48 189.808 178.463L168.629 177.513C168.13 177.488 167.655 177.291 167.284 176.955C166.913 176.62 166.669 176.167 166.594 175.673Z" fill="#407BFF"/>
<path opacity="0.6" d="M166.594 175.673C166.513 175.116 166.652 174.55 166.982 174.095C167.312 173.64 167.807 173.331 168.361 173.236C172.651 172.529 182.399 171.091 187.298 171.773C190.954 172.285 191.904 174.405 192.063 176.148C192.088 176.453 192.047 176.76 191.943 177.048C191.839 177.336 191.675 177.599 191.462 177.818C191.248 178.037 190.99 178.208 190.705 178.32C190.42 178.431 190.114 178.48 189.808 178.463L168.629 177.513C168.13 177.488 167.655 177.291 167.284 176.955C166.913 176.62 166.669 176.167 166.594 175.673Z" fill="black"/>
<path d="M178.841 388.561L186.701 394.021L199.85 376.193L191.99 370.745L178.841 388.561Z" fill="#E58A7B"/>
<path d="M160.513 388.208L168.812 392.936L180.45 374.084L172.151 369.356L160.513 388.208Z" fill="#E58A7B"/>
<path d="M199.837 376.193L193.062 385.381L185.202 379.934L191.978 370.745L199.837 376.193Z" fill="#CF6F64"/>
<path d="M172.139 369.356L180.45 374.097L174.454 383.809L166.143 379.069L172.139 369.356Z" fill="#CF6F64"/>
<path d="M185.47 235.189C185.47 235.189 216.154 273.855 210.39 310.839C205.748 340.707 178.817 381.152 178.817 381.152L166.155 374.864C175.08 356.982 182.696 338.476 188.943 319.491C190.87 313.597 191.432 307.343 190.588 301.2C189.743 295.057 187.514 289.186 184.069 284.03C168.52 261.328 143.611 274.842 160.367 235.189H185.47Z" fill="#407BFF"/>
<path opacity="0.6" d="M185.47 235.189C185.47 235.189 216.154 273.855 210.39 310.839C205.748 340.707 178.817 381.152 178.817 381.152L166.155 374.864C175.08 356.982 182.696 338.476 188.943 319.491C190.87 313.597 191.432 307.343 190.588 301.2C189.743 295.057 187.514 289.186 184.069 284.03C168.52 261.328 143.611 274.842 160.367 235.189H185.47Z" fill="black"/>
<path opacity="0.4" d="M200.52 260.024L196.06 255.588C196.06 255.942 204.7 309.28 207.125 324.268C208.556 319.89 209.652 315.409 210.403 310.864C213.254 292.719 207.295 274.184 200.52 260.024Z" fill="black"/>
<path d="M199.167 235.189C199.167 235.189 236.115 283.787 237.163 312.923C238.028 337.295 196.949 384.516 196.949 384.516L185.007 376.79C185.007 376.79 209.05 343.254 215.106 315.86C212.767 288.71 163.292 235.189 163.292 235.189H199.167Z" fill="#407BFF"/>
<path opacity="0.6" d="M199.167 235.189C199.167 235.189 236.115 283.787 237.163 312.923C238.028 337.295 196.949 384.516 196.949 384.516L185.007 376.79C185.007 376.79 209.05 343.254 215.106 315.86C212.767 288.71 163.292 235.189 163.292 235.189H199.167Z" fill="black"/>
<path d="M153.458 177.196C149.509 178.134 145.72 192.489 145.72 192.489L161.159 202.799C161.159 202.799 166.302 191.441 164.498 186.469C162.634 181.29 158.417 176.014 153.458 177.196Z" fill="#407BFF"/>
<path opacity="0.2" d="M156.48 186.445L155.407 198.96L161.147 202.811C162.732 199.243 163.905 195.506 164.644 191.673L156.48 186.445Z" fill="black"/>
<path d="M203.737 177.476C203.737 177.476 208.294 179.073 199.167 235.177H160.343C161.001 219.335 161.013 209.586 153.458 177.196C158.894 176.076 164.404 175.351 169.945 175.027C175.815 174.606 181.708 174.606 187.578 175.027C195.158 175.721 203.737 177.476 203.737 177.476Z" fill="#407BFF"/>
<path d="M207.685 186.445C208.563 188.882 209.489 191.502 210.464 194.025C211.438 196.547 212.365 199.143 213.352 201.702L216.337 209.355L217.093 211.268L217.483 212.218L217.665 212.694C217.665 212.779 217.665 212.779 217.665 212.767C217.443 212.453 217.151 212.194 216.812 212.011C216.33 211.728 215.787 211.565 215.228 211.536C214.764 211.522 214.302 211.609 213.876 211.792C213.315 212.048 213.315 212.157 213.327 212.145C213.429 212.064 213.519 211.97 213.595 211.865C214.27 210.979 214.854 210.028 215.338 209.026C215.911 207.905 216.459 206.71 217.007 205.504C218.08 203.067 219.067 200.544 220.054 197.997C221.041 195.451 221.979 192.879 222.893 190.284L225.672 182.509L230.363 183.728C229.437 189.284 228.243 194.695 226.805 200.203C226.11 202.945 225.294 205.662 224.368 208.404C223.905 209.781 223.393 211.146 222.808 212.547C222.198 214.068 221.448 215.529 220.566 216.91C220.242 217.375 219.883 217.815 219.493 218.226C218.871 218.898 218.116 219.434 217.276 219.798C216.53 220.118 215.722 220.268 214.911 220.237C214.003 220.203 213.118 219.939 212.34 219.469C211.422 218.896 210.66 218.105 210.122 217.166C209.94 216.849 209.781 216.532 209.671 216.301L209.44 215.838L208.977 214.887L208.051 212.998C206.832 210.464 205.614 207.905 204.553 205.333C203.493 202.762 202.372 200.154 201.324 197.534C200.276 194.914 199.338 192.294 198.448 189.467L207.685 186.445Z" fill="#E58A7B"/>
<path d="M203.737 177.476C208.404 178.585 213.656 192.38 213.656 192.38L199.777 204.188C199.777 204.188 190.795 189.15 192.611 184.191C194.5 179.024 197.644 176.026 203.737 177.476Z" fill="#407BFF"/>
<path d="M227.877 178.146L232.752 174.076L236.139 179.353L233.641 183.752C233.641 183.752 229.669 187.408 226.159 185.543C225.602 184.291 225.468 182.892 225.779 181.557C226.089 180.222 226.825 179.025 227.877 178.146Z" fill="#E58A7B"/>
<path d="M241.55 174.089L241.184 175.417L233.471 176.709L232.715 174.076L241.55 174.089Z" fill="#E58A7B"/>
<path d="M197.9 385.137L183.984 376.144L186.482 371.806L202.116 381.42L197.9 385.137Z" fill="#407BFF"/>
<path d="M174.259 392.302C173.038 392.153 171.865 391.737 170.823 391.084C170.78 391.069 170.742 391.041 170.716 391.004C170.69 390.967 170.675 390.922 170.675 390.877C170.675 390.831 170.69 390.787 170.716 390.75C170.742 390.712 170.78 390.685 170.823 390.67C171.2 390.548 174.479 389.536 175.429 390.316C175.536 390.405 175.617 390.521 175.664 390.651C175.711 390.782 175.723 390.923 175.697 391.06C175.68 391.279 175.607 391.49 175.486 391.674C175.364 391.857 175.198 392.006 175.003 392.107C174.774 392.232 174.519 392.299 174.259 392.302ZM171.517 390.962C173.041 391.742 174.259 392.022 174.844 391.73C174.971 391.659 175.079 391.557 175.155 391.433C175.232 391.31 175.276 391.168 175.283 391.023C175.283 390.828 175.283 390.743 175.173 390.694C174.661 390.28 172.833 390.596 171.493 390.962H171.517Z" fill="#263238"/>
<path d="M170.908 391.169C170.844 391.168 170.782 391.142 170.737 391.096C170.719 391.062 170.71 391.025 170.71 390.986C170.71 390.948 170.719 390.91 170.737 390.877C170.737 390.767 171.529 388.123 172.772 387.526C172.931 387.453 173.104 387.416 173.278 387.416C173.453 387.416 173.625 387.453 173.784 387.526C173.955 387.58 174.103 387.689 174.205 387.837C174.306 387.985 174.356 388.163 174.344 388.342C174.259 389.439 172.029 390.95 171.006 391.206L170.908 391.169ZM173.272 387.842C173.154 387.846 173.037 387.875 172.931 387.928C172.175 388.293 171.554 389.719 171.249 390.584C172.322 390.133 173.796 388.939 173.845 388.269C173.845 388.159 173.845 388.025 173.565 387.903C173.473 387.854 173.374 387.821 173.272 387.806V387.842Z" fill="#263238"/>
<path d="M191.648 397.567C190.271 397.567 188.358 395.8 187.31 394.715C187.284 394.678 187.269 394.633 187.269 394.587C187.269 394.541 187.284 394.497 187.31 394.459C187.334 394.42 187.369 394.388 187.409 394.367C187.45 394.345 187.496 394.335 187.542 394.338C188.029 394.338 192.258 394.971 192.855 396.165C192.918 396.272 192.952 396.395 192.952 396.519C192.952 396.643 192.918 396.765 192.855 396.872C192.765 397.058 192.63 397.218 192.462 397.338C192.293 397.457 192.097 397.532 191.892 397.555L191.648 397.567ZM188.115 394.886C189.65 396.373 191.003 397.201 191.77 397.104C191.905 397.086 192.033 397.036 192.143 396.957C192.254 396.879 192.343 396.774 192.404 396.653C192.431 396.611 192.446 396.563 192.446 396.513C192.446 396.463 192.431 396.414 192.404 396.373C192.087 395.715 189.833 395.154 188.115 394.886Z" fill="#263238"/>
<path d="M188.249 394.825C187.975 394.833 187.702 394.812 187.432 394.764C187.395 394.758 187.359 394.743 187.329 394.72C187.299 394.696 187.276 394.665 187.262 394.63C187.243 394.594 187.234 394.554 187.234 394.514C187.234 394.474 187.243 394.434 187.262 394.398C187.335 394.313 188.98 392.327 190.54 392.193C190.981 392.158 191.419 392.298 191.758 392.583C192.233 392.997 192.209 393.363 192.087 393.594C191.783 394.423 189.674 394.825 188.249 394.825ZM187.932 394.374C189.297 394.447 191.478 393.996 191.758 393.399C191.758 393.399 191.856 393.204 191.539 392.936C191.413 392.827 191.265 392.744 191.106 392.694C190.947 392.643 190.779 392.626 190.613 392.644C189.562 392.937 188.626 393.545 187.932 394.386V394.374Z" fill="#263238"/>
<path d="M171.237 389.853L160.903 386.929C160.725 386.875 160.533 386.888 160.365 386.967C160.196 387.046 160.062 387.184 159.989 387.355L156.504 395.191C156.422 395.391 156.384 395.607 156.391 395.824C156.399 396.04 156.452 396.253 156.548 396.447C156.643 396.642 156.779 396.814 156.946 396.952C157.113 397.091 157.307 397.192 157.516 397.25C161.171 398.201 162.926 398.469 167.472 399.773C170.274 400.552 174.271 402.003 178.134 403.099C181.997 404.196 183.289 400.431 181.79 399.626C175.015 396.044 174.478 393.533 172.626 390.852C172.294 390.367 171.803 390.013 171.237 389.853Z" fill="#407BFF"/>
<path d="M187.59 393.29L178.768 387.197C178.618 387.088 178.434 387.037 178.25 387.055C178.065 387.073 177.894 387.158 177.769 387.294L171.919 393.582C171.777 393.745 171.67 393.936 171.607 394.142C171.544 394.349 171.526 394.567 171.554 394.781C171.581 394.996 171.654 395.202 171.768 395.386C171.881 395.57 172.033 395.728 172.212 395.849C175.319 397.932 176.928 398.773 180.815 401.466C183.252 403.124 187.968 406.804 191.258 409.095C194.549 411.386 196.998 408.242 195.828 406.999C190.588 401.405 189.443 397.896 188.578 394.715C188.427 394.138 188.078 393.633 187.59 393.29Z" fill="#407BFF"/>
<path d="M180.437 381.957L164.535 374.048L166.18 369.734L183.167 378.069L180.437 381.957Z" fill="#407BFF"/>
<path d="M159.758 232.898L158.417 236.407C158.283 236.676 158.6 236.956 159.051 236.956H199.362C199.716 236.956 200.008 236.785 200.032 236.566L200.374 233.081C200.374 232.849 200.093 232.642 199.716 232.642H160.391C160.273 232.631 160.154 232.648 160.044 232.693C159.933 232.737 159.835 232.808 159.758 232.898Z" fill="#407BFF"/>
<path opacity="0.4" d="M159.758 232.898L158.417 236.407C158.283 236.676 158.6 236.956 159.051 236.956H199.362C199.716 236.956 200.008 236.785 200.032 236.566L200.374 233.081C200.374 232.849 200.093 232.642 199.716 232.642H160.391C160.273 232.631 160.154 232.648 160.044 232.693C159.933 232.737 159.835 232.808 159.758 232.898Z" fill="white"/>
<path d="M166.107 237.297H165.047C164.839 237.297 164.681 237.187 164.693 237.053L165.193 232.532C165.193 232.411 165.388 232.301 165.595 232.301H166.655C166.862 232.301 167.021 232.411 167.009 232.532L166.509 237.053C166.497 237.187 166.314 237.297 166.107 237.297Z" fill="#407BFF"/>
<path d="M190.966 237.297H189.918C189.711 237.297 189.552 237.187 189.565 237.053L190.052 232.532C190.052 232.411 190.259 232.301 190.466 232.301H191.514C191.722 232.301 191.892 232.411 191.868 232.532L191.38 237.053C191.319 237.187 191.185 237.297 190.966 237.297Z" fill="#407BFF"/>
<g style="mix-blend-mode:multiply">
<path d="M165.181 443.666C183.211 443.666 197.827 442.608 197.827 441.302C197.827 439.997 183.211 438.938 165.181 438.938C147.151 438.938 132.534 439.997 132.534 441.302C132.534 442.608 147.151 443.666 165.181 443.666Z" fill="#F5F5F5"/>
</g>
<path d="M185.068 437.963C179.292 436.282 172.882 434.125 169.007 431.87C168.897 431.797 168.775 431.761 168.666 431.7V405.549H180.352C181.239 405.496 182.073 405.107 182.682 404.46C183.292 403.813 183.631 402.958 183.631 402.069C183.631 401.181 183.292 400.326 182.682 399.679C182.073 399.032 181.239 398.643 180.352 398.59H168.727V279.387H161.708V398.59H150.094C149.62 398.562 149.145 398.631 148.699 398.794C148.252 398.956 147.844 399.207 147.498 399.533C147.152 399.859 146.877 400.252 146.688 400.688C146.5 401.124 146.403 401.594 146.403 402.069C146.403 402.545 146.5 403.015 146.688 403.451C146.877 403.887 147.152 404.28 147.498 404.606C147.844 404.931 148.252 405.183 148.699 405.345C149.145 405.507 149.62 405.577 150.094 405.549H161.708V431.663C161.598 431.663 161.488 431.761 161.378 431.834C157.442 434.125 151.081 436.282 145.305 437.927C144.915 438.045 144.58 438.298 144.361 438.642C144.141 438.986 144.053 439.397 144.11 439.8C144.167 440.204 144.367 440.573 144.674 440.842C144.98 441.111 145.373 441.261 145.78 441.266H184.593C184.982 441.239 185.351 441.08 185.637 440.814C185.923 440.549 186.11 440.193 186.165 439.807C186.221 439.42 186.142 439.026 185.943 438.691C185.743 438.355 185.434 438.098 185.068 437.963Z" fill="#E0E0E0"/>
<path d="M186.859 267.25H143.526C140.04 267.25 137.214 270.076 137.214 273.562V286.443C137.214 289.929 140.04 292.755 143.526 292.755H186.859C190.346 292.755 193.172 289.929 193.172 286.443V273.562C193.172 270.076 190.346 267.25 186.859 267.25Z" fill="#407BFF"/>
<path d="M143.124 292.768V294.985C143.124 296.813 145.11 298.3 147.547 298.3H182.887C185.324 298.3 187.31 296.813 187.31 294.985V292.768H143.124Z" fill="#407BFF"/>
<path opacity="0.3" d="M143.124 292.768V294.985C143.124 296.813 145.11 298.3 147.547 298.3H182.887C185.324 298.3 187.31 296.813 187.31 294.985V292.768H143.124Z" fill="white"/>
</svg>
